SplineFontDB: 3.2
FontName: Corpus.Bold
FullName: Corpus.Bold
FamilyName: Corpus
Weight: Bold
Copyright: (c) RISC OS Developments Ltd, released under Apache License 2.0
Version: 1
ItalicAngle: 0
UnderlinePosition: 0
UnderlineWidth: 0
Ascent: 314
Descent: 79
InvalidEm: 0
LayerCount: 2
Layer: 0 0 "Back" 1
Layer: 1 0 "Fore" 0
OS2Version: 0
OS2_WeightWidthSlopeOnly: 0
OS2_UseTypoMetrics: 0
CreationTime: 1622737881
ModificationTime: 1622737881
OS2TypoAscent: 0
OS2TypoAOffset: 1
OS2TypoDescent: 0
OS2TypoDOffset: 1
OS2TypoLinegap: 0
OS2WinAscent: 0
OS2WinAOffset: 1
OS2WinDescent: 0
OS2WinDOffset: 1
HheadAscent: 0
HheadAOffset: 1
HheadDescent: 0
HheadDOffset: 1
OS2Vendor: 'PfEd'
DEI: 91125
Encoding: Custom
UnicodeInterp: none
NameList: AGL For New Fonts
DisplaySize: -24
AntiAlias: 1
FitToEm: 0
BeginChars: 480 406

StartChar: exclam
Encoding: 33 33 32
Width: 235
VWidth: 0
Flags: HMW
LayerCount: 2
Fore
SplineSet
124 228 m 0
 134 226 139 221 140 214 c 0
 137 90 l 0
 136 82 133 77 125 75 c 0
 110 75 l 0
 102 77 99 82 98 90 c 0
 95 214 l 0
 96 221 101 226 111 228 c 0
 124 228 l 0
142 -4 m 0
 127 -14 108 -14 93 -3 c 0
 77 10 77 28 93 39 c 0
 108 49 127 49 142 38 c 0
 158 25 158 7 142 -4 c 0
EndSplineSet
EndChar

StartChar: quoteleft
Encoding: 34 8216 33
Width: 235
VWidth: 0
Flags: HMW
LayerCount: 2
Fore
SplineSet
116 229 m 0
 125 255 159 247 150 220 c 0
 130 146 l 0
 127 135 118 127 104 130 c 0
 87 135 89 147 92 157 c 0
 116 229 l 0
EndSplineSet
EndChar

StartChar: quoteright
Encoding: 35 8217 34
Width: 235
VWidth: 0
Flags: HMW
LayerCount: 2
Fore
SplineSet
111 228 m 0
 114 239 123 247 137 244 c 0
 154 239 152 227 149 217 c 0
 125 145 l 0
 116 119 82 127 91 154 c 0
 111 228 l 0
EndSplineSet
EndChar

StartChar: quotedblleft
Encoding: 36 8220 35
Width: 235
VWidth: 0
Flags: HMW
LayerCount: 2
Fore
SplineSet
125 157 m 0
 149 229 l 0
 158 255 192 247 183 220 c 0
 163 146 l 0
 160 135 151 127 137 130 c 0
 120 135 122 147 125 157 c 0
64 157 m 0
 88 229 l 0
 97 255 131 247 122 220 c 0
 102 146 l 0
 99 135 90 127 76 130 c 0
 59 135 61 147 64 157 c 0
EndSplineSet
EndChar

StartChar: quotedblbase
Encoding: 38 8222 37
Width: 235
VWidth: 0
Flags: HMW
LayerCount: 2
Fore
SplineSet
97 -59 m 0
 88 -85 54 -77 63 -50 c 0
 83 24 l 0
 86 35 95 43 109 40 c 0
 126 35 124 23 121 13 c 0
 97 -59 l 0
158 -59 m 0
 149 -85 115 -77 124 -50 c 0
 144 24 l 0
 147 35 156 43 170 40 c 0
 170 38 l 0
 187 33 185 23 182 13 c 0
 158 -59 l 0
EndSplineSet
EndChar

StartChar: asciitilde
Encoding: 39 126 38
Width: 235
VWidth: 0
Flags: HMW
LayerCount: 2
Fore
SplineSet
13 86 m 0
 54 151 82 136 127 117 c 0
 168 99 172 99 198 140 c 0
 207 155 231 136 219 116 c 0
 193 64 161 63 115 85 c 0
 74 107 65 107 37 62 c 0
 26 45 1 68 13 86 c 0
EndSplineSet
EndChar

StartChar: parenleft
Encoding: 40 40 39
Width: 235
VWidth: 0
Flags: HMW
LayerCount: 2
Fore
SplineSet
160 -45 m 0
 176 -68 149 -88 130 -66 c 0
 86 -16 62 132 131 219 c 0
 150 241 177 221 161 198 c 0
 117 125 122 21 160 -45 c 0
EndSplineSet
EndChar

StartChar: parenright
Encoding: 41 41 40
Width: 235
VWidth: 0
Flags: HMW
LayerCount: 2
Fore
SplineSet
79 198 m 0
 63 221 90 241 109 219 c 0
 178 132 154 -16 110 -66 c 0
 91 -88 64 -68 80 -45 c 0
 118 21 123 125 79 198 c 0
EndSplineSet
EndChar

StartChar: asterisk
Encoding: 42 42 41
Width: 235
VWidth: 0
Flags: HMW
LayerCount: 2
Fore
SplineSet
49 161 m 0
 28 170 40 198 62 189 c 0
 106 170 l 0
 105 218 l 0
 105 242 135 242 135 218 c 0
 133 170 l 0
 178 189 l 0
 200 198 212 170 191 161 c 0
 141 146 l 0
 171 111 l 0
 186 91 162 74 147 93 c 0
 120 131 l 0
 93 93 l 0
 78 74 54 91 69 111 c 0
 96 145 l 0
 49 161 l 0
EndSplineSet
EndChar

StartChar: sterling
Encoding: 43 163 42
Width: 235
VWidth: 0
Flags: HMW
LayerCount: 2
Fore
SplineSet
43 98 m 0
 27 98 27 124 43 124 c 0
 59 124 l 0
 59 164 l 0
 59 179 61 197 79 214 c 0
 103 236 167 233 186 204 c 0
 206 175 196 153 177 153 c 0
 149 153 154 179 149 186 c 0
 141 199 119 198 109 189 c 0
 100 180 99 170 99 165 c 0
 99 124 l 0
 127 124 l 0
 143 124 143 98 127 98 c 0
 99 98 l 0
 99 30 l 0
 179 30 l 0
 203 30 203 0 179 0 c 0
 44 0 l 0
 20 0 20 30 44 30 c 0
 59 30 l 0
 59 98 l 0
 43 98 l 0
EndSplineSet
EndChar

StartChar: comma
Encoding: 44 44 43
Width: 235
VWidth: 0
Flags: HMW
LayerCount: 2
Fore
SplineSet
98 -61 m 0
 93 -70 86 -68 74 -62 c 0
 66 -57 59 -54 63 -43 c 0
 90 27 l 0
 93 35 92 41 108 41 c 0
 134 41 l 0
 144 41 144 33 141 26 c 0
 98 -61 l 0
EndSplineSet
EndChar

StartChar: hyphen
Encoding: 45 45 44
Width: 235
VWidth: 0
Flags: HMW
LayerCount: 2
Fore
SplineSet
89 72 m 0
 74 72 75 111 89 111 c 0
 149 111 l 0
 163 111 164 72 149 72 c 0
 89 72 l 0
EndSplineSet
EndChar

StartChar: period
Encoding: 46 46 45
Width: 235
VWidth: 0
Flags: HMW
LayerCount: 2
Fore
SplineSet
93 39 m 0
 108 49 127 49 142 38 c 0
 158 25 158 7 142 -4 c 0
 127 -14 108 -14 93 -3 c 0
 77 10 77 28 93 39 c 0
EndSplineSet
EndChar

StartChar: zero
Encoding: 48 48 47
Width: 235
VWidth: 0
Flags: HMW
LayerCount: 2
Fore
SplineSet
142 199 m 0
 131 216 109 216 96 199 c 0
 74 168 76 64 96 35 c 0
 109 18 131 18 142 35 c 0
 162 64 164 168 142 199 c 0
166 14 m 0
 142 -13 97 -13 72 14 c 0
 32 58 32 176 72 222 c 0
 97 249 142 249 166 222 c 0
 206 176 206 58 166 14 c 0
EndSplineSet
EndChar

StartChar: one
Encoding: 49 49 48
Width: 235
VWidth: 0
Flags: HMW
LayerCount: 2
Fore
SplineSet
175 0 m 0
 62 0 l 0
 38 0 38 30 62 30 c 0
 99 30 l 0
 99 206 l 0
 76 206 l 0
 52 206 52 236 76 236 c 0
 131 236 l 0
 135 236 139 231 139 227 c 0
 139 30 l 0
 175 30 l 0
 199 30 199 0 175 0 c 0
EndSplineSet
EndChar

StartChar: two
Encoding: 50 50 49
Width: 235
VWidth: 0
Flags: HMW
LayerCount: 2
Fore
SplineSet
173 30 m 0
 173 54 203 54 203 30 c 0
 203 14 l 0
 203 5 198 0 191 0 c 0
 47 0 l 0
 32 0 29 11 39 21 c 0
 127 108 l 0
 159 142 169 169 155 197 c 0
 144 219 111 216 93 198 c 0
 84 188 75 171 60 182 c 0
 47 195 64 211 71 218 c 0
 114 257 164 244 187 210 c 0
 203 186 205 145 171 112 c 0
 91 30 l 0
 173 30 l 0
EndSplineSet
EndChar

StartChar: three
Encoding: 51 51 50
Width: 235
VWidth: 0
Flags: HMW
LayerCount: 2
Fore
SplineSet
114 111 m 0
 90 111 90 141 114 141 c 0
 132 141 154 166 137 198 c 0
 127 220 88 213 72 194 c 0
 55 174 36 197 51 214 c 0
 74 241 135 259 167 218 c 0
 190 190 181 154 150 129 c 0
 189 111 210 71 178 21 c 0
 157 -13 87 -14 50 12 c 0
 34 23 45 49 63 40 c 0
 88 30 117 10 141 36 c 0
 165 61 151 111 114 111 c 0
EndSplineSet
EndChar

StartChar: four
Encoding: 52 52 51
Width: 235
VWidth: 0
Flags: HMW
LayerCount: 2
Fore
SplineSet
139 193 m 0
 79 89 l 0
 139 89 l 0
 139 193 l 0
133 30 m 0
 139 30 l 0
 139 59 l 0
 53 59 l 0
 41 59 34 69 41 81 c 0
 133 237 l 0
 148 262 179 252 179 240 c 0
 179 89 l 0
 203 89 203 59 179 59 c 0
 179 30 l 0
 203 30 203 0 179 0 c 0
 133 0 l 0
 109 0 109 30 133 30 c 0
EndSplineSet
EndChar

StartChar: five
Encoding: 53 53 52
Width: 235
VWidth: 0
Flags: HMW
LayerCount: 2
Fore
SplineSet
150 38 m 0
 165 54 164 90 151 105 c 0
 136 120 111 124 88 113 c 0
 79 107 72 106 63 106 c 0
 54 106 48 109 49 130 c 0
 51 226 l 0
 51 232 56 236 62 236 c 0
 171 236 l 0
 195 236 195 206 171 206 c 0
 91 206 l 0
 89 141 l 0
 114 154 160 152 183 121 c 0
 206 90 207 47 177 16 c 0
 146 -16 82 -14 47 11 c 0
 33 21 45 48 63 36 c 0
 84 21 128 12 150 38 c 0
EndSplineSet
EndChar

StartChar: six
Encoding: 54 54 53
Width: 235
VWidth: 0
Flags: HMW
LayerCount: 2
Fore
SplineSet
149 94 m 0
 137 117 106 120 92 97 c 0
 82 80 81 58 92 42 c 0
 106 22 128 17 146 38 c 0
 158 51 159 75 149 94 c 0
171 13 m 0
 143 -15 73 -14 52 47 c 0
 32 106 38 186 102 228 c 0
 123 242 155 246 179 238 c 0
 193 234 192 199 163 210 c 0
 151 214 137 210 120 199 c 0
 93 180 83 153 82 122 c 0
 110 154 158 149 177 121 c 0
 199 89 199 42 171 13 c 0
EndSplineSet
EndChar

StartChar: seven
Encoding: 55 55 54
Width: 235
VWidth: 0
Flags: HMW
LayerCount: 2
Fore
SplineSet
122 2 m 0
 116 -16 74 -8 84 15 c 0
 160 206 l 0
 75 206 l 0
 75 185 44 185 44 202 c 0
 44 226 l 0
 44 233 50 236 57 236 c 0
 184 236 l 0
 191 236 200 231 198 222 c 0
 122 2 l 0
EndSplineSet
EndChar

StartChar: eight
Encoding: 56 56 55
Width: 235
VWidth: 0
Flags: HMW
LayerCount: 2
Fore
SplineSet
144 157 m 0
 153 169 153 183 144 199 c 0
 133 216 105 216 94 199 c 0
 85 183 85 169 94 157 c 0
 105 140 133 140 144 157 c 0
184 26 m 0
 158 -17 79 -17 53 26 c 0
 30 63 41 111 86 129 c 0
 52 145 38 181 56 211 c 0
 80 253 158 253 182 211 c 0
 200 181 185 145 151 129 c 0
 196 111 207 63 184 26 c 0
147 37 m 0
 163 58 161 84 147 101 c 0
 134 118 103 118 90 101 c 0
 76 84 74 58 90 37 c 0
 103 21 134 21 147 37 c 0
EndSplineSet
EndChar

StartChar: nine
Encoding: 57 57 56
Width: 235
VWidth: 0
Flags: HMW
LayerCount: 2
Fore
SplineSet
91 142 m 0
 103 119 134 116 148 139 c 0
 158 156 159 179 148 195 c 0
 134 215 112 220 94 199 c 0
 82 186 81 161 91 142 c 0
69 224 m 0
 97 252 167 251 188 190 c 0
 208 131 202 50 138 8 c 0
 117 -6 85 -10 61 -2 c 0
 47 2 48 37 77 26 c 0
 89 22 103 26 120 37 c 0
 147 56 157 83 158 114 c 0
 130 82 82 87 63 115 c 0
 41 147 41 195 69 224 c 0
EndSplineSet
EndChar

StartChar: colon
Encoding: 58 58 57
Width: 235
VWidth: 0
Flags: HMW
LayerCount: 2
Fore
SplineSet
142 38 m 0
 158 25 158 7 142 -4 c 0
 127 -14 108 -14 93 -3 c 0
 77 10 77 28 93 39 c 0
 108 49 127 49 142 38 c 0
142 93 m 0
 127 83 108 83 93 94 c 0
 77 107 77 125 93 136 c 0
 108 146 127 146 142 135 c 0
 158 122 158 104 142 93 c 0
EndSplineSet
EndChar

StartChar: semicolon
Encoding: 59 59 58
Width: 235
VWidth: 0
Flags: HMW
LayerCount: 2
Fore
SplineSet
142 135 m 0
 158 122 158 104 142 93 c 0
 127 83 108 83 93 94 c 0
 77 107 77 125 93 136 c 0
 108 146 127 146 142 135 c 0
63 -43 m 0
 90 27 l 0
 93 35 92 41 108 41 c 0
 134 41 l 0
 144 41 144 33 141 26 c 0
 98 -61 l 0
 93 -70 86 -68 74 -62 c 0
 66 -57 59 -54 63 -43 c 0
EndSplineSet
EndChar

StartChar: quotesingle
Encoding: 60 39 59
Width: 235
VWidth: 0
Flags: HMW
LayerCount: 2
Fore
SplineSet
86 219 m 0
 85 232 135 232 134 219 c 0
 129 136 l 0
 128 113 92 113 91 136 c 0
 86 219 l 0
EndSplineSet
EndChar

StartChar: equal
Encoding: 61 61 60
Width: 235
VWidth: 0
Flags: HMW
LayerCount: 2
Fore
SplineSet
175 104 m 0
 57 104 l 0
 33 104 33 134 57 134 c 0
 175 134 l 0
 199 134 199 104 175 104 c 0
175 47 m 0
 57 47 l 0
 33 47 33 77 57 77 c 0
 175 77 l 0
 199 77 199 47 175 47 c 0
EndSplineSet
EndChar

StartChar: quotedbl
Encoding: 62 34 61
Width: 235
VWidth: 0
Flags: HMW
LayerCount: 2
Fore
SplineSet
128 219 m 0
 128 225 137 228 152 228 c 0
 167 228 176 225 176 219 c 0
 171 136 l 0
 170 113 134 113 133 136 c 0
 128 219 l 0
111 219 m 0
 106 136 l 0
 105 113 69 113 68 136 c 0
 63 219 l 0
 63 225 72 228 87 228 c 0
 102 228 111 225 111 219 c 0
EndSplineSet
EndChar

StartChar: question
Encoding: 63 63 62
Width: 235
VWidth: 0
Flags: HMW
LayerCount: 2
Fore
SplineSet
88 -3 m 0
 72 10 72 28 88 39 c 0
 103 49 122 49 137 38 c 0
 153 25 153 7 137 -4 c 0
 122 -14 103 -14 88 -3 c 0
187 129 m 0
 177 114 143 98 127 94 c 0
 127 84 l 0
 127 60 97 60 97 84 c 0
 97 101 l 0
 97 116 109 116 121 116 c 0
 132 118 143 125 148 133 c 0
 163 152 158 174 145 187 c 0
 130 202 100 203 76 188 c 0
 76 164 46 164 46 188 c 0
 46 209 l 0
 46 220 66 222 97 227 c 0
 150 233 167 221 180 209 c 0
 199 191 206 157 187 129 c 0
EndSplineSet
EndChar

StartChar: acute
Encoding: 64 180 63
Width: 235
VWidth: 0
Flags: HMW
LayerCount: 2
Fore
SplineSet
149 264 m 0
 164 251 l 0
 172 244 170 238 162 231 c 0
 122 203 l 0
 111 196 98 207 105 217 c 0
 133 260 l 0
 138 265 144 267 149 264 c 0
EndSplineSet
EndChar

StartChar: A
Encoding: 65 65 64
Width: 235
VWidth: 0
Flags: HMW
LayerCount: 2
Fore
SplineSet
214 0 m 0
 163 0 l 0
 139 0 139 30 163 30 c 0
 175 30 l 0
 161 64 l 0
 77 64 l 0
 62 30 l 0
 74 30 l 0
 98 30 98 0 74 0 c 0
 23 0 l 0
 -1 0 -1 30 22 30 c 0
 90 193 l 0
 59 193 l 0
 35 193 35 223 59 223 c 0
 130 223 l 0
 140 223 144 214 148 205 c 0
 215 30 l 0
 238 30 238 0 214 0 c 0
151 94 m 0
 121 171 l 0
 89 94 l 0
 151 94 l 0
EndSplineSet
EndChar

StartChar: B
Encoding: 66 66 65
Width: 235
VWidth: 0
Flags: HMW
LayerCount: 2
Fore
SplineSet
130 193 m 0
 86 193 l 0
 86 129 l 0
 126 129 l 0
 177 129 175 193 130 193 c 0
135 30 m 0
 191 30 197 99 135 99 c 0
 86 99 l 0
 86 30 l 0
 135 30 l 0
142 223 m 0
 211 223 222 151 176 120 c 0
 245 93 225 0 144 0 c 0
 41 0 l 0
 17 0 17 30 41 30 c 0
 46 30 l 0
 46 193 l 0
 41 193 l 0
 17 193 17 223 41 223 c 0
 142 223 l 0
EndSplineSet
EndChar

StartChar: C
Encoding: 67 67 66
Width: 235
VWidth: 0
Flags: HMW
LayerCount: 2
Fore
SplineSet
85 180 m 0
 58 154 45 93 83 48 c 0
 111 15 162 18 194 55 c 0
 208 71 225 59 217 43 c 0
 175 -23 85 -12 50 24 c 0
 1 75 13 166 62 205 c 0
 100 235 145 235 176 210 c 0
 176 234 206 234 206 210 c 0
 206 159 l 0
 206 135 176 135 176 159 c 0
 176 164 169 180 157 188 c 0
 135 204 108 201 85 180 c 0
EndSplineSet
EndChar

StartChar: D
Encoding: 68 68 67
Width: 235
VWidth: 0
Flags: HMW
LayerCount: 2
Fore
SplineSet
110 193 m 0
 72 193 l 0
 72 30 l 0
 110 30 l 0
 126 30 138 34 150 44 c 0
 183 68 184 150 150 179 c 0
 138 189 126 193 110 193 c 0
119 0 m 0
 32 0 l 0
 8 0 8 30 32 30 c 0
 32 193 l 0
 8 193 8 223 32 223 c 0
 119 223 l 0
 153 223 179 208 199 175 c 0
 219 144 222 87 199 48 c 0
 179 15 153 0 119 0 c 0
EndSplineSet
EndChar

StartChar: E
Encoding: 69 69 68
Width: 235
VWidth: 0
Flags: HMW
LayerCount: 2
Fore
SplineSet
156 96 m 0
 156 72 126 72 126 96 c 0
 126 103 l 0
 86 103 l 0
 86 30 l 0
 177 30 l 0
 177 60 l 0
 177 84 207 84 207 60 c 0
 207 14 l 0
 207 3 205 0 195 0 c 0
 37 0 l 0
 13 0 13 30 37 30 c 0
 46 30 l 0
 46 193 l 0
 37 193 l 0
 13 193 13 223 37 223 c 0
 195 223 l 0
 205 223 207 220 207 209 c 0
 207 165 l 0
 207 141 177 141 177 165 c 0
 177 193 l 0
 86 193 l 0
 86 133 l 0
 126 133 l 0
 126 138 l 0
 126 162 156 162 156 138 c 0
 156 96 l 0
EndSplineSet
EndChar

StartChar: F
Encoding: 70 70 69
Width: 235
VWidth: 0
Flags: HMW
LayerCount: 2
Fore
SplineSet
126 96 m 0
 126 103 l 0
 86 103 l 0
 86 30 l 0
 113 30 l 0
 137 30 137 0 113 0 c 0
 37 0 l 0
 13 0 13 30 37 30 c 0
 46 30 l 0
 46 193 l 0
 37 193 l 0
 13 193 13 223 37 223 c 0
 195 223 l 0
 204 223 207 221 207 209 c 0
 207 156 l 0
 207 132 177 132 177 156 c 0
 177 193 l 0
 86 193 l 0
 86 133 l 0
 126 133 l 0
 126 138 l 0
 126 162 156 162 156 138 c 0
 156 96 l 0
 156 72 126 72 126 96 c 0
EndSplineSet
EndChar

StartChar: G
Encoding: 71 71 70
Width: 235
VWidth: 0
Flags: HMW
LayerCount: 2
Fore
SplineSet
138 77 m 0
 114 77 114 107 138 107 c 0
 206 107 l 0
 230 107 228 77 206 77 c 0
 206 17 l 0
 149 -20 68 -9 37 39 c 0
 7 86 14 170 57 204 c 0
 94 233 150 235 176 213 c 0
 176 234 206 234 206 210 c 0
 206 167 l 0
 206 143 176 143 176 167 c 0
 177 192 114 220 78 177 c 0
 52 145 55 95 69 62 c 0
 85 26 128 16 176 31 c 0
 176 77 l 0
 138 77 l 0
EndSplineSet
EndChar

StartChar: H
Encoding: 72 72 71
Width: 235
VWidth: 0
Flags: HMW
LayerCount: 2
Fore
SplineSet
197 0 m 0
 157 0 l 0
 133 0 133 30 157 30 c 0
 157 103 l 0
 81 103 l 0
 81 30 l 0
 105 30 105 0 81 0 c 0
 41 0 l 0
 17 0 17 30 41 30 c 0
 41 193 l 0
 17 193 17 223 41 223 c 0
 81 223 l 0
 105 223 105 193 81 193 c 0
 81 133 l 0
 157 133 l 0
 157 193 l 0
 133 193 133 223 157 223 c 0
 197 223 l 0
 221 223 221 193 197 193 c 0
 197 30 l 0
 221 30 221 0 197 0 c 0
EndSplineSet
EndChar

StartChar: I
Encoding: 73 73 72
Width: 235
VWidth: 0
Flags: HMW
LayerCount: 2
Fore
SplineSet
185 0 m 0
 53 0 l 0
 29 0 29 30 53 30 c 0
 99 30 l 0
 99 193 l 0
 53 193 l 0
 29 193 29 223 53 223 c 0
 185 223 l 0
 209 223 209 193 185 193 c 0
 139 193 l 0
 139 30 l 0
 185 30 l 0
 209 30 209 0 185 0 c 0
EndSplineSet
EndChar

StartChar: J
Encoding: 74 74 73
Width: 235
VWidth: 0
Flags: HMW
LayerCount: 2
Fore
SplineSet
20 28 m 0
 20 83 l 0
 20 107 50 107 50 83 c 0
 50 72 l 0
 50 59 51 51 57 41 c 0
 69 24 109 18 128 39 c 0
 135 46 138 53 138 75 c 0
 138 193 l 0
 92 193 l 0
 68 193 68 223 92 223 c 0
 203 223 l 0
 227 223 227 193 203 193 c 0
 178 193 l 0
 178 75 l 0
 178 64 179 36 154 13 c 0
 129 -11 55 -16 20 28 c 0
EndSplineSet
EndChar

StartChar: K
Encoding: 75 75 74
Width: 235
VWidth: 0
Flags: HMW
LayerCount: 2
Fore
SplineSet
157 193 m 0
 133 193 133 223 157 223 c 0
 207 223 l 0
 231 223 231 193 207 193 c 0
 198 193 l 0
 131 129 l 0
 178 97 179 58 200 30 c 0
 207 30 l 0
 231 30 231 0 207 0 c 0
 181 0 l 0
 158 21 140 96 106 106 c 0
 87 88 l 0
 87 30 l 0
 98 30 l 0
 122 30 122 0 98 0 c 0
 36 0 l 0
 12 0 12 30 36 30 c 0
 47 30 l 0
 47 193 l 0
 36 193 l 0
 12 193 12 223 36 223 c 0
 98 223 l 0
 122 223 122 193 98 193 c 0
 87 193 l 0
 87 125 l 0
 157 193 l 0
EndSplineSet
EndChar

StartChar: L
Encoding: 76 76 75
Width: 235
VWidth: 0
Flags: HMW
LayerCount: 2
Fore
SplineSet
198 0 m 0
 33 0 l 0
 9 0 9 30 33 30 c 0
 53 30 l 0
 53 193 l 0
 33 193 l 0
 9 193 9 223 33 223 c 0
 122 223 l 0
 146 223 146 193 122 193 c 0
 93 193 l 0
 93 30 l 0
 182 30 l 0
 182 83 l 0
 182 107 212 107 212 83 c 0
 212 16 l 0
 212 4 209 0 198 0 c 0
EndSplineSet
EndChar

StartChar: M
Encoding: 77 77 76
Width: 235
VWidth: 0
Flags: HMW
LayerCount: 2
Fore
SplineSet
20 0 m 0
 -4 0 -4 30 20 30 c 0
 26 193 l 0
 2 193 2 223 26 223 c 0
 66 223 l 0
 70 223 73 219 75 214 c 0
 115 95 l 0
 155 214 l 0
 157 219 160 223 164 223 c 0
 204 223 l 0
 228 223 228 193 204 193 c 0
 210 30 l 0
 217 30 l 0
 241 30 241 0 217 0 c 0
 170 0 l 0
 146 0 146 30 170 30 c 0
 164 167 l 0
 128 63 l 0
 123 47 102 46 97 63 c 0
 57 170 l 0
 53 30 l 0
 60 30 l 0
 84 30 84 0 60 0 c 0
 20 0 l 0
EndSplineSet
EndChar

StartChar: N
Encoding: 78 78 77
Width: 235
VWidth: 0
Flags: HMW
LayerCount: 2
Fore
SplineSet
207 193 m 0
 207 7 l 0
 207 -2 204 -5 188 -5 c 0
 177 -4 174 2 171 7 c 0
 83 145 l 0
 83 30 l 0
 94 30 l 0
 118 30 118 0 94 0 c 0
 36 0 l 0
 12 0 12 30 36 30 c 0
 43 30 l 0
 43 193 l 0
 35 193 l 0
 11 193 11 223 35 223 c 0
 64 223 l 0
 72 223 75 220 78 214 c 0
 167 78 l 0
 167 193 l 0
 159 193 l 0
 135 193 135 223 159 223 c 0
 207 223 l 0
 231 223 231 193 207 193 c 0
EndSplineSet
EndChar

StartChar: O
Encoding: 79 79 78
Width: 235
VWidth: 0
Flags: HMW
LayerCount: 2
Fore
SplineSet
159 172 m 0
 138 207 100 207 79 172 c 0
 56 134 56 89 79 51 c 0
 100 16 138 16 159 51 c 0
 182 89 182 134 159 172 c 0
188 197 m 0
 230 152 230 71 188 26 c 0
 150 -15 88 -15 50 26 c 0
 8 71 8 152 50 197 c 0
 88 238 150 238 188 197 c 0
EndSplineSet
EndChar

StartChar: P
Encoding: 80 80 79
Width: 235
VWidth: 0
Flags: HMW
LayerCount: 2
Fore
SplineSet
172 177 m 0
 167 188 154 193 140 193 c 0
 99 193 l 0
 99 117 l 0
 140 117 l 0
 154 117 167 122 172 133 c 0
 177 145 177 165 172 177 c 0
137 0 m 0
 41 0 l 0
 17 0 17 30 41 30 c 0
 59 30 l 0
 59 193 l 0
 41 193 l 0
 17 193 17 223 41 223 c 0
 142 223 l 0
 167 223 185 214 202 197 c 0
 222 176 222 134 202 113 c 0
 185 96 167 87 142 87 c 0
 99 87 l 0
 99 30 l 0
 137 30 l 0
 161 30 161 0 137 0 c 0
EndSplineSet
EndChar

StartChar: Q
Encoding: 81 81 80
Width: 235
VWidth: 0
Flags: HMW
LayerCount: 2
Fore
SplineSet
79 51 m 0
 100 16 138 16 159 51 c 0
 182 89 182 134 159 172 c 0
 138 207 100 207 79 172 c 0
 56 134 56 89 79 51 c 0
89 0 m 0
 76 5 64 12 50 26 c 0
 8 71 8 152 50 197 c 0
 88 238 150 238 188 197 c 0
 230 152 230 71 188 26 c 0
 171 8 149 -3 119 -5 c 0
 110 -13 l 0
 152 -24 156 -32 193 -12 c 0
 203 -7 221 -22 212 -34 c 0
 164 -104 134 -13 83 -48 c 0
 56 -68 46 -36 51 -30 c 0
 59 -19 73 -9 89 0 c 0
EndSplineSet
EndChar

StartChar: R
Encoding: 82 82 81
Width: 235
VWidth: 0
Flags: HMW
LayerCount: 2
Fore
SplineSet
134 223 m 0
 153 223 172 216 184 202 c 0
 208 177 207 142 183 119 c 0
 175 112 161 104 149 102 c 0
 171 83 197 42 203 30 c 0
 211 30 l 0
 235 30 235 0 211 0 c 0
 184 0 l 0
 170 0 139 92 96 92 c 0
 86 92 l 0
 86 30 l 0
 106 30 l 0
 130 30 130 0 106 0 c 0
 41 0 l 0
 17 0 17 30 41 30 c 0
 46 30 l 0
 46 193 l 0
 41 193 l 0
 17 193 17 223 41 223 c 0
 134 223 l 0
158 135 m 0
 166 146 166 168 159 179 c 0
 151 190 144 193 127 193 c 0
 86 193 l 0
 86 122 l 0
 127 122 l 0
 144 122 151 125 158 135 c 0
EndSplineSet
EndChar

StartChar: S
Encoding: 83 83 82
Width: 235
VWidth: 0
Flags: HMW
LayerCount: 2
Fore
SplineSet
196 168 m 0
 196 144 166 144 166 165 c 0
 166 172 157 185 149 190 c 0
 135 201 110 203 92 190 c 0
 79 180 75 165 82 148 c 0
 94 118 182 132 200 85 c 0
 208 65 205 40 182 19 c 0
 144 -14 91 -12 59 16 c 0
 59 -8 29 -8 29 16 c 0
 29 64 l 0
 29 88 59 88 59 64 c 0
 59 27 135 12 151 36 c 0
 159 46 165 60 159 71 c 0
 151 89 127 94 107 99 c 0
 67 108 46 125 42 138 c 0
 33 163 38 189 58 208 c 0
 86 233 153 234 166 212 c 0
 166 234 196 234 196 210 c 0
 196 168 l 0
EndSplineSet
EndChar

StartChar: T
Encoding: 84 84 83
Width: 235
VWidth: 0
Flags: HMW
LayerCount: 2
Fore
SplineSet
166 0 m 0
 72 0 l 0
 48 0 48 30 72 30 c 0
 99 30 l 0
 99 193 l 0
 52 193 l 0
 49 141 l 0
 49 117 19 117 19 141 c 0
 19 209 l 0
 19 220 22 223 31 223 c 0
 207 223 l 0
 216 223 219 220 219 209 c 0
 219 141 l 0
 219 117 189 117 189 141 c 0
 186 193 l 0
 139 193 l 0
 139 30 l 0
 166 30 l 0
 190 30 190 0 166 0 c 0
EndSplineSet
EndChar

StartChar: U
Encoding: 85 85 84
Width: 235
VWidth: 0
Flags: HMW
LayerCount: 2
Fore
SplineSet
88 193 m 0
 75 193 l 0
 75 76 l 0
 75 62 76 50 84 39 c 0
 98 20 147 20 161 39 c 0
 169 50 170 62 170 76 c 0
 170 193 l 0
 166 193 l 0
 142 193 142 223 166 223 c 0
 204 223 l 0
 228 223 228 193 204 193 c 0
 204 76 l 0
 204 69 205 38 187 19 c 0
 161 -13 79 -13 53 19 c 0
 33 43 35 69 35 76 c 0
 35 193 l 0
 11 193 11 223 35 223 c 0
 88 223 l 0
 112 223 112 193 88 193 c 0
EndSplineSet
EndChar

StartChar: V
Encoding: 86 86 85
Width: 235
VWidth: 0
Flags: HMW
LayerCount: 2
Fore
SplineSet
94 2 m 0
 22 193 l 0
 -2 193 -2 223 22 223 c 0
 80 223 l 0
 104 223 104 193 80 193 c 0
 62 193 l 0
 120 38 l 0
 182 193 l 0
 160 193 l 0
 136 193 136 223 160 223 c 0
 215 223 l 0
 239 223 239 193 215 193 c 0
 211 193 l 0
 134 1 l 0
 129 -11 99 -11 94 2 c 0
EndSplineSet
EndChar

StartChar: W
Encoding: 87 87 86
Width: 235
VWidth: 0
Flags: HMW
LayerCount: 2
Fore
SplineSet
19 193 m 0
 -5 193 -5 223 19 223 c 0
 75 223 l 0
 99 223 99 193 75 193 c 0
 59 193 l 0
 72 64 l 0
 101 170 l 0
 103 179 110 180 119 180 c 0
 128 180 135 179 137 170 c 0
 168 64 l 0
 185 193 l 0
 166 193 l 0
 142 193 142 223 166 223 c 0
 217 223 l 0
 241 223 241 193 217 193 c 0
 191 2 l 0
 189 -7 182 -8 173 -8 c 0
 162 -8 155 -7 153 2 c 0
 119 124 l 0
 82 2 l 0
 80 -7 73 -8 62 -8 c 0
 48 -8 41 -7 39 2 c 0
 19 193 l 0
EndSplineSet
EndChar

StartChar: X
Encoding: 88 88 87
Width: 235
VWidth: 0
Flags: HMW
LayerCount: 2
Fore
SplineSet
202 0 m 0
 159 0 l 0
 135 0 135 30 159 30 c 0
 116 91 l 0
 70 30 l 0
 78 30 l 0
 102 30 102 0 78 0 c 0
 36 0 l 0
 12 0 12 30 36 30 c 0
 39 30 l 0
 101 112 l 0
 44 193 l 0
 40 193 l 0
 16 193 16 223 40 223 c 0
 84 223 l 0
 108 223 108 193 84 193 c 0
 121 139 l 0
 162 193 l 0
 159 193 l 0
 135 193 135 223 159 223 c 0
 198 223 l 0
 222 223 222 193 198 193 c 0
 192 193 l 0
 136 116 l 0
 197 30 l 0
 202 30 l 0
 226 30 226 0 202 0 c 0
EndSplineSet
EndChar

StartChar: Y
Encoding: 89 89 88
Width: 235
VWidth: 0
Flags: HMW
LayerCount: 2
Fore
SplineSet
166 0 m 0
 75 0 l 0
 51 0 51 30 75 30 c 0
 99 30 l 0
 99 83 l 0
 39 193 l 0
 35 193 l 0
 11 193 11 223 35 223 c 0
 86 223 l 0
 110 223 110 193 86 193 c 0
 78 193 l 0
 123 111 l 0
 169 193 l 0
 157 193 l 0
 133 193 133 223 157 223 c 0
 208 223 l 0
 232 223 232 193 208 193 c 0
 200 193 l 0
 139 83 l 0
 139 30 l 0
 166 30 l 0
 190 30 190 0 166 0 c 0
EndSplineSet
EndChar

StartChar: Z
Encoding: 90 90 89
Width: 235
VWidth: 0
Flags: HMW
LayerCount: 2
Fore
SplineSet
39 21 m 0
 155 193 l 0
 83 193 l 0
 83 158 l 0
 83 134 53 134 53 158 c 0
 53 209 l 0
 53 221 55 223 65 223 c 0
 188 223 l 0
 202 223 207 215 199 202 c 0
 86 30 l 0
 160 30 l 0
 166 72 l 0
 168 96 198 93 196 69 c 0
 191 14 l 0
 190 2 189 0 179 0 c 0
 50 0 l 0
 36 0 31 8 39 21 c 0
EndSplineSet
EndChar

StartChar: dieresis
Encoding: 91 168 90
Width: 235
VWidth: 0
Flags: HMW
LayerCount: 2
Fore
SplineSet
143 252 m 0
 153 262 171 262 181 252 c 0
 190 243 190 224 180 215 c 0
 171 205 153 205 143 215 c 0
 133 224 133 242 143 252 c 0
55 215 m 0
 45 224 45 243 54 252 c 0
 64 262 82 262 92 252 c 0
 102 242 102 224 92 215 c 0
 82 205 64 205 55 215 c 0
EndSplineSet
EndChar

StartChar: ring
Encoding: 92 730 91
Width: 235
VWidth: 0
Flags: HMW
LayerCount: 2
Fore
SplineSet
134 209 m 0
 119 194 96 194 82 209 c 0
 69 222 69 245 82 258 c 0
 96 273 119 273 134 258 c 0
 147 245 147 222 134 209 c 0
118 222 m 0
 124 229 124 239 118 245 c 0
 112 251 104 251 98 245 c 0
 91 239 91 228 98 222 c 0
 103 216 112 215 118 222 c 0
EndSplineSet
EndChar

StartChar: dotaccent
Encoding: 93 729 92
Width: 235
VWidth: 0
Flags: HMW
LayerCount: 2
Fore
SplineSet
93 199 m 0
 108 209 127 209 142 198 c 0
 158 185 158 167 142 156 c 0
 127 146 108 146 93 157 c 0
 77 170 77 188 93 199 c 0
EndSplineSet
EndChar

StartChar: circumflex
Encoding: 94 710 93
Width: 235
VWidth: 0
Flags: HMW
LayerCount: 2
Fore
SplineSet
63 223 m 0
 107 262 l 0
 112 266 127 266 131 262 c 0
 175 223 l 0
 188 210 174 194 160 204 c 0
 134 222 l 0
 123 228 115 228 104 222 c 0
 78 204 l 0
 64 194 50 210 63 223 c 0
EndSplineSet
EndChar

StartChar: underscore
Encoding: 95 95 94
Width: 235
VWidth: 0
Flags: HMW
LayerCount: 2
Fore
SplineSet
0 -91 m 0
 0 -67 l 0
 235 -67 l 0
 235 -91 l 0
 0 -91 l 0
EndSplineSet
EndChar

StartChar: grave
Encoding: 96 96 95
Width: 235
VWidth: 0
Flags: HMW
LayerCount: 2
Fore
SplineSet
73 251 m 0
 88 264 l 0
 93 267 99 265 104 260 c 0
 132 217 l 0
 139 207 126 196 115 203 c 0
 75 231 l 0
 67 238 65 244 73 251 c 0
EndSplineSet
EndChar

StartChar: a
Encoding: 97 97 96
Width: 235
VWidth: 0
Flags: HMW
LayerCount: 2
Fore
SplineSet
184 152 m 0
 188 146 192 138 192 129 c 0
 192 30 l 0
 199 30 l 0
 223 30 223 0 199 0 c 0
 161 0 l 0
 155 0 152 3 152 9 c 0
 152 24 l 0
 128 -12 64 -14 38 14 c 0
 19 35 21 63 39 82 c 0
 64 108 103 115 152 103 c 0
 152 118 l 0
 152 123 151 132 144 138 c 0
 125 152 89 146 66 134 c 0
 45 123 31 149 52 161 c 0
 84 182 165 183 184 152 c 0
82 75 m 0
 64 68 61 48 70 35 c 0
 83 17 125 28 152 50 c 0
 152 73 l 0
 124 80 100 81 82 75 c 0
EndSplineSet
EndChar

StartChar: b
Encoding: 98 98 97
Width: 235
VWidth: 0
Flags: HMW
LayerCount: 2
Fore
SplineSet
80 0 m 0
 37 0 l 0
 13 0 13 30 37 30 c 0
 49 30 l 0
 49 215 l 0
 37 215 l 0
 13 215 13 245 37 245 c 0
 75 245 l 0
 83 245 89 240 89 233 c 0
 89 155 l 0
 112 182 166 185 197 151 c 0
 230 116 232 61 201 23 c 0
 170 -15 105 -11 89 17 c 0
 89 5 88 0 80 0 c 0
172 43 m 0
 186 66 188 103 170 130 c 0
 153 154 114 150 100 129 c 0
 85 107 85 67 99 44 c 0
 112 24 156 15 172 43 c 0
EndSplineSet
EndChar

StartChar: c
Encoding: 99 99 98
Width: 235
VWidth: 0
Flags: HMW
LayerCount: 2
Fore
SplineSet
179 157 m 0
 179 182 209 182 209 157 c 0
 209 115 l 0
 209 91 179 91 179 115 c 0
 179 121 166 133 157 139 c 0
 136 152 99 148 82 128 c 0
 61 101 65 61 89 40 c 0
 120 13 156 29 190 57 c 0
 204 71 223 53 209 39 c 0
 155 -22 91 -11 58 18 c 0
 18 53 21 120 58 153 c 0
 93 185 155 181 179 157 c 0
EndSplineSet
EndChar

StartChar: d
Encoding: 100 100 99
Width: 235
VWidth: 0
Flags: HMW
LayerCount: 2
Fore
SplineSet
203 0 m 0
 162 0 l 0
 155 0 153 6 153 16 c 0
 125 -17 66 -9 41 23 c 0
 10 61 12 114 45 151 c 0
 79 189 134 179 153 155 c 0
 153 215 l 0
 118 215 l 0
 94 215 94 245 118 245 c 0
 179 245 l 0
 187 245 193 240 193 233 c 0
 193 30 l 0
 203 30 l 0
 227 30 227 0 203 0 c 0
138 134 m 0
 120 152 86 151 72 130 c 0
 56 106 54 74 68 48 c 0
 85 17 127 21 145 49 c 0
 158 68 155 116 138 134 c 0
EndSplineSet
EndChar

StartChar: e
Encoding: 101 101 100
Width: 235
VWidth: 0
Flags: HMW
LayerCount: 2
Fore
SplineSet
202 119 m 0
 208 98 207 74 192 74 c 0
 68 74 l 0
 68 62 72 56 76 48 c 0
 93 20 139 17 200 51 c 0
 215 60 225 38 213 29 c 0
 148 -20 72 -13 45 33 c 0
 20 74 24 121 58 153 c 0
 95 187 181 190 202 119 c 0
69 104 m 0
 174 104 l 0
 174 115 169 124 164 130 c 0
 145 149 108 152 83 130 c 0
 76 124 69 111 69 104 c 0
EndSplineSet
EndChar

StartChar: f
Encoding: 102 102 101
Width: 235
VWidth: 0
Flags: HMW
LayerCount: 2
Fore
SplineSet
166 0 m 0
 52 0 l 0
 28 0 28 30 52 30 c 0
 73 30 l 0
 73 141 l 0
 52 141 l 0
 28 141 28 171 52 171 c 0
 73 171 l 0
 73 195 l 0
 73 221 85 231 92 237 c 0
 112 254 181 254 205 242 c 0
 221 234 199 203 186 211 c 0
 174 218 131 224 120 212 c 0
 115 207 113 200 113 192 c 0
 113 171 l 0
 166 171 l 0
 190 171 190 141 166 141 c 0
 113 141 l 0
 113 30 l 0
 166 30 l 0
 190 30 190 0 166 0 c 0
EndSplineSet
EndChar

StartChar: g
Encoding: 103 103 102
Width: 235
VWidth: 0
Flags: HMW
LayerCount: 2
Fore
SplineSet
199 171 m 0
 223 171 223 141 199 141 c 0
 190 141 l 0
 190 10 l 0
 190 -10 184 -42 160 -60 c 0
 131 -83 91 -77 67 -71 c 0
 48 -66 62 -28 79 -37 c 0
 96 -45 120 -50 134 -37 c 0
 148 -25 150 -5 150 4 c 0
 150 31 l 0
 123 8 74 8 47 35 c 0
 16 65 10 117 43 150 c 0
 76 184 124 182 150 159 c 0
 150 167 154 171 159 171 c 0
 199 171 l 0
137 62 m 0
 154 79 154 112 137 129 c 0
 120 147 91 147 74 129 c 0
 56 111 56 78 73 62 c 0
 91 44 120 44 137 62 c 0
EndSplineSet
EndChar

StartChar: h
Encoding: 104 104 103
Width: 235
VWidth: 0
Flags: HMW
LayerCount: 2
Fore
SplineSet
77 245 m 0
 83 245 86 242 86 236 c 0
 86 153 l 0
 103 166 118 176 141 176 c 0
 190 176 203 147 203 116 c 0
 203 30 l 0
 227 30 227 0 203 0 c 0
 159 0 l 0
 135 0 135 30 159 30 c 0
 163 30 l 0
 163 116 l 0
 163 136 155 144 135 144 c 0
 114 144 100 138 86 120 c 0
 86 30 l 0
 110 30 110 0 86 0 c 0
 42 0 l 0
 18 0 18 30 42 30 c 0
 46 30 l 0
 46 215 l 0
 42 215 l 0
 18 215 18 245 42 245 c 0
 77 245 l 0
EndSplineSet
EndChar

StartChar: i
Encoding: 105 105 104
Width: 235
VWidth: 0
Flags: HMW
LayerCount: 2
Fore
SplineSet
181 0 m 0
 58 0 l 0
 34 0 34 30 58 30 c 0
 98 30 l 0
 98 141 l 0
 71 141 l 0
 47 141 47 171 71 171 c 0
 129 171 l 0
 135 171 138 168 138 162 c 0
 138 30 l 0
 181 30 l 0
 205 30 205 0 181 0 c 0
98 212 m 0
 98 241 l 0
 98 257 138 257 138 241 c 0
 138 212 l 0
 138 196 98 196 98 212 c 0
EndSplineSet
EndChar

StartChar: j
Encoding: 106 106 105
Width: 235
VWidth: 0
Flags: HMW
LayerCount: 2
Fore
SplineSet
64 -44 m 0
 99 -45 137 -51 137 -13 c 0
 137 141 l 0
 64 141 l 0
 40 141 40 171 64 171 c 0
 168 171 l 0
 174 171 177 168 177 162 c 0
 177 -13 l 0
 177 -24 175 -44 162 -57 c 0
 136 -84 83 -75 63 -74 c 0
 39 -73 40 -42 64 -44 c 0
120 241 m 0
 120 257 160 257 160 241 c 0
 160 212 l 0
 160 196 120 196 120 212 c 0
 120 241 l 0
EndSplineSet
EndChar

StartChar: k
Encoding: 107 107 106
Width: 235
VWidth: 0
Flags: HMW
LayerCount: 2
Fore
SplineSet
199 0 m 0
 151 0 l 0
 127 0 127 30 151 30 c 0
 99 82 l 0
 86 73 l 0
 86 9 l 0
 86 4 82 0 77 0 c 0
 36 0 l 0
 12 0 12 30 36 30 c 0
 46 30 l 0
 46 215 l 0
 36 215 l 0
 12 215 12 245 36 245 c 0
 77 245 l 0
 82 245 86 241 86 236 c 0
 86 106 l 0
 137 141 l 0
 113 141 113 171 137 171 c 0
 190 171 l 0
 214 171 214 141 190 141 c 0
 185 141 l 0
 123 98 l 0
 196 30 l 0
 199 30 l 0
 223 30 223 0 199 0 c 0
EndSplineSet
EndChar

StartChar: l
Encoding: 108 108 107
Width: 235
VWidth: 0
Flags: HMW
LayerCount: 2
Fore
SplineSet
139 236 m 0
 139 30 l 0
 187 30 l 0
 211 30 211 0 187 0 c 0
 52 0 l 0
 28 0 28 30 52 30 c 0
 99 30 l 0
 99 215 l 0
 74 215 l 0
 50 215 50 245 74 245 c 0
 130 245 l 0
 135 245 139 241 139 236 c 0
EndSplineSet
EndChar

StartChar: m
Encoding: 109 109 108
Width: 235
VWidth: 0
Flags: HMW
LayerCount: 2
Fore
SplineSet
216 0 m 0
 189 0 l 0
 181 0 176 4 176 18 c 0
 176 126 l 0
 176 158 139 140 139 114 c 0
 139 30 l 0
 163 30 163 0 139 0 c 0
 112 0 l 0
 104 0 99 4 99 18 c 0
 99 126 l 0
 99 158 62 140 62 114 c 0
 62 30 l 0
 86 30 86 0 62 0 c 0
 22 0 l 0
 -2 0 -2 30 22 30 c 0
 22 141 l 0
 -2 141 -2 171 22 171 c 0
 53 171 l 0
 59 171 62 168 62 155 c 0
 82 181 115 187 127 149 c 0
 149 189 216 189 216 124 c 0
 216 30 l 0
 240 30 240 0 216 0 c 0
EndSplineSet
EndChar

StartChar: n
Encoding: 110 110 109
Width: 235
VWidth: 0
Flags: HMW
LayerCount: 2
Fore
SplineSet
203 30 m 0
 227 30 227 0 203 0 c 0
 158 0 l 0
 134 0 134 30 158 30 c 0
 163 30 l 0
 163 116 l 0
 163 135 155 144 135 144 c 0
 119 144 100 140 86 120 c 0
 86 30 l 0
 110 30 110 0 86 0 c 0
 41 0 l 0
 17 0 17 30 41 30 c 0
 46 30 l 0
 46 141 l 0
 41 141 l 0
 17 141 17 171 41 171 c 0
 77 171 l 0
 83 171 86 168 86 162 c 0
 86 153 l 0
 104 168 119 176 142 176 c 0
 183 176 203 152 203 116 c 0
 203 30 l 0
EndSplineSet
EndChar

StartChar: o
Encoding: 111 111 110
Width: 235
VWidth: 0
Flags: HMW
LayerCount: 2
Fore
SplineSet
186 18 m 0
 154 -13 84 -13 52 18 c 0
 16 54 16 117 52 153 c 0
 84 184 154 184 186 153 c 0
 222 117 222 54 186 18 c 0
158 45 m 0
 177 68 177 103 158 126 c 0
 138 150 100 150 80 126 c 0
 61 103 61 68 80 45 c 0
 100 21 138 21 158 45 c 0
EndSplineSet
EndChar

StartChar: p
Encoding: 112 112 111
Width: 235
VWidth: 0
Flags: HMW
LayerCount: 2
Fore
SplineSet
106 -73 m 0
 32 -73 l 0
 8 -73 8 -43 32 -43 c 0
 41 -43 l 0
 41 141 l 0
 32 141 l 0
 8 141 8 171 32 171 c 0
 72 171 l 0
 77 171 81 167 81 162 c 0
 81 152 l 0
 105 184 161 183 187 155 c 0
 224 117 228 61 187 19 c 0
 164 -5 112 -18 81 16 c 0
 81 -43 l 0
 106 -43 l 0
 130 -43 130 -73 106 -73 c 0
90 45 m 0
 105 19 144 19 163 43 c 0
 181 66 180 113 156 136 c 0
 141 151 111 147 96 133 c 0
 78 115 76 72 90 45 c 0
EndSplineSet
EndChar

StartChar: q
Encoding: 113 113 112
Width: 235
VWidth: 0
Flags: HMW
LayerCount: 2
Fore
SplineSet
201 -73 m 0
 128 -73 l 0
 104 -73 104 -43 128 -43 c 0
 153 -43 l 0
 153 19 l 0
 129 -12 74 -12 44 21 c 0
 8 60 13 117 40 148 c 0
 72 184 126 184 153 155 c 0
 153 162 l 0
 153 167 157 171 162 171 c 0
 201 171 l 0
 225 171 225 141 201 141 c 0
 193 141 l 0
 193 -43 l 0
 201 -43 l 0
 225 -43 225 -73 201 -73 c 0
132 35 m 0
 161 55 158 113 139 131 c 0
 118 151 95 153 75 135 c 0
 53 114 53 68 70 44 c 0
 85 24 108 18 132 35 c 0
EndSplineSet
EndChar

StartChar: r
Encoding: 114 114 113
Width: 235
VWidth: 0
Flags: HMW
LayerCount: 2
Fore
SplineSet
52 171 m 0
 96 171 l 0
 101 171 105 167 105 162 c 0
 105 135 l 0
 150 188 197 181 211 163 c 0
 223 146 202 121 192 131 c 0
 166 154 152 153 105 106 c 0
 105 30 l 0
 165 30 l 0
 189 30 189 0 165 0 c 0
 37 0 l 0
 13 0 13 30 37 30 c 0
 65 30 l 0
 65 141 l 0
 52 141 l 0
 28 141 28 171 52 171 c 0
EndSplineSet
EndChar

StartChar: s
Encoding: 115 115 114
Width: 235
VWidth: 0
Flags: HMW
LayerCount: 2
Fore
SplineSet
154 35 m 0
 161 41 164 51 157 61 c 0
 145 78 78 64 55 94 c 0
 36 119 45 147 66 163 c 0
 89 179 129 182 161 163 c 0
 161 181 191 182 191 158 c 0
 191 129 l 0
 191 105 161 105 161 129 c 0
 161 136 109 159 88 138 c 0
 82 132 80 126 83 120 c 0
 99 92 168 110 189 77 c 0
 204 55 198 35 184 17 c 0
 171 1 115 -21 68 13 c 0
 68 -11 38 -11 38 13 c 0
 38 49 l 0
 38 73 68 73 68 49 c 0
 68 40 120 9 154 35 c 0
EndSplineSet
EndChar

StartChar: t
Encoding: 116 116 115
Width: 235
VWidth: 0
Flags: HMW
LayerCount: 2
Fore
SplineSet
61 230 m 0
 59 246 108 247 106 230 c 0
 105 219 103 204 103 194 c 0
 103 171 l 0
 176 171 l 0
 200 171 200 141 176 141 c 0
 103 141 l 0
 103 65 l 0
 103 46 105 40 111 32 c 0
 123 15 177 34 196 41 c 0
 217 48 225 24 204 15 c 0
 175 3 119 -18 80 10 c 0
 66 21 63 39 63 56 c 0
 63 141 l 0
 43 141 l 0
 19 141 19 171 43 171 c 0
 63 171 l 0
 63 194 l 0
 63 204 62 220 61 230 c 0
EndSplineSet
EndChar

StartChar: u
Encoding: 117 117 116
Width: 235
VWidth: 0
Flags: HMW
LayerCount: 2
Fore
SplineSet
63 171 m 0
 70 171 74 166 74 159 c 0
 74 55 l 0
 74 10 134 20 151 49 c 0
 151 141 l 0
 134 141 l 0
 110 141 110 171 134 171 c 0
 180 171 l 0
 187 171 191 166 191 159 c 0
 191 30 l 0
 195 30 l 0
 219 30 219 0 195 0 c 0
 170 0 l 0
 163 0 159 5 159 12 c 0
 159 26 l 0
 126 -16 34 -22 34 55 c 0
 34 141 l 0
 10 141 10 171 34 171 c 0
 63 171 l 0
EndSplineSet
EndChar

StartChar: v
Encoding: 118 118 117
Width: 235
VWidth: 0
Flags: HMW
LayerCount: 2
Fore
SplineSet
158 141 m 0
 134 141 134 171 158 171 c 0
 206 171 l 0
 230 171 230 141 208 141 c 0
 203 141 l 0
 136 2 l 0
 129 -14 104 -14 97 2 c 0
 36 141 l 0
 12 141 12 171 36 171 c 0
 84 171 l 0
 108 171 108 141 84 141 c 0
 75 141 l 0
 122 34 l 0
 172 141 l 0
 158 141 l 0
EndSplineSet
EndChar

StartChar: w
Encoding: 119 119 118
Width: 235
VWidth: 0
Flags: HMW
LayerCount: 2
Fore
SplineSet
138 124 m 0
 163 53 l 0
 185 141 l 0
 175 141 l 0
 151 141 151 171 175 171 c 0
 215 171 l 0
 239 171 239 141 215 141 c 0
 176 0 l 0
 171 -14 147 -14 143 0 c 0
 116 75 l 0
 89 0 l 0
 85 -14 61 -14 56 0 c 0
 21 141 l 0
 -3 141 -3 171 21 171 c 0
 65 171 l 0
 89 171 89 141 65 141 c 0
 58 141 l 0
 78 51 l 0
 107 124 l 0
 111 138 133 138 138 124 c 0
EndSplineSet
EndChar

StartChar: x
Encoding: 120 120 119
Width: 235
VWidth: 0
Flags: HMW
LayerCount: 2
Fore
SplineSet
147 141 m 0
 119 141 120 171 144 171 c 0
 186 171 l 0
 210 171 210 141 186 141 c 0
 140 94 l 0
 201 30 l 0
 225 30 225 0 201 0 c 0
 144 0 l 0
 120 0 120 30 144 30 c 0
 148 30 l 0
 113 66 l 0
 77 30 l 0
 85 30 l 0
 109 30 109 0 85 0 c 0
 33 0 l 0
 9 0 9 30 33 30 c 0
 37 30 l 0
 91 84 l 0
 36 141 l 0
 12 141 12 171 36 171 c 0
 91 171 l 0
 115 171 115 141 91 141 c 0
 118 111 l 0
 147 141 l 0
EndSplineSet
EndChar

StartChar: y
Encoding: 121 121 120
Width: 235
VWidth: 0
Flags: HMW
LayerCount: 2
Fore
SplineSet
37 -73 m 0
 13 -73 13 -43 37 -43 c 0
 74 -43 l 0
 104 13 l 0
 37 141 l 0
 13 141 13 171 37 171 c 0
 84 171 l 0
 108 171 108 141 84 141 c 0
 79 141 l 0
 124 51 l 0
 171 141 l 0
 166 141 l 0
 142 141 142 171 166 171 c 0
 205 171 l 0
 229 171 229 141 205 141 c 0
 108 -43 l 0
 121 -43 l 0
 145 -43 145 -73 121 -73 c 0
 37 -73 l 0
EndSplineSet
EndChar

StartChar: z
Encoding: 122 122 121
Width: 235
VWidth: 0
Flags: HMW
LayerCount: 2
Fore
SplineSet
45 159 m 0
 45 168 48 171 58 171 c 0
 195 171 l 0
 208 171 219 165 205 149 c 0
 91 30 l 0
 161 30 l 0
 161 41 l 0
 161 65 191 65 191 41 c 0
 191 19 191 0 171 0 c 0
 38 0 l 0
 25 0 14 6 28 22 c 0
 143 141 l 0
 75 141 l 0
 75 132 l 0
 75 108 45 108 45 132 c 0
 45 159 l 0
EndSplineSet
EndChar

StartChar: breve
Encoding: 123 728 122
Width: 235
VWidth: 0
Flags: HMW
LayerCount: 2
Fore
SplineSet
51 283 m 0
 50 295 77 295 80 284 c 0
 82 260 94 252 109 252 c 0
 129 252 140 262 144 284 c 0
 149 297 173 292 172 284 c 0
 169 245 144 228 110 228 c 0
 82 228 54 242 51 283 c 0
EndSplineSet
EndChar

StartChar: macron
Encoding: 124 175 123
Width: 235
VWidth: 0
Flags: HMW
LayerCount: 2
Fore
SplineSet
151 208 m 0
 87 208 l 0
 63 208 63 238 87 238 c 0
 151 238 l 0
 175 238 175 208 151 208 c 0
EndSplineSet
EndChar

StartChar: hungarumlaut
Encoding: 125 733 124
Width: 235
VWidth: 0
Flags: HMW
LayerCount: 2
Fore
SplineSet
128 219 m 0
 141 235 182 226 176 219 c 0
 123 168 l 0
 105 151 77 158 85 168 c 0
 128 219 l 0
63 219 m 0
 75 232 124 231 111 219 c 0
 58 168 l 0
 37 149 13 160 20 168 c 0
 63 219 l 0
EndSplineSet
EndChar

StartChar: tilde
Encoding: 126 732 125
Width: 235
VWidth: 0
Flags: HMW
LayerCount: 2
Fore
SplineSet
53 220 m 0
 53 236 71 252 93 252 c 0
 123 252 126 230 143 230 c 0
 158 230 159 249 173 249 c 0
 182 249 185 243 185 233 c 0
 185 217 167 201 145 201 c 0
 115 201 112 223 95 223 c 0
 80 223 79 204 65 204 c 0
 56 204 53 210 53 220 c 0
EndSplineSet
EndChar

StartChar: caron
Encoding: 127 711 126
Width: 235
VWidth: 0
Flags: HMW
LayerCount: 2
Fore
SplineSet
78 231 m 0
 62 243 81 260 98 245 c 0
 113 231 l 0
 118 227 122 226 127 230 c 0
 141 245 l 0
 153 258 175 248 163 233 c 0
 132 202 l 0
 123 194 119 194 110 202 c 0
 78 231 l 0
EndSplineSet
EndChar

StartChar: onesuperior
Encoding: 128 185 127
Width: 235
VWidth: 0
Flags: HMW
LayerCount: 2
Fore
SplineSet
82 111 m 0
 107 111 l 0
 107 191 l 0
 90 185 l 0
 70 179 63 202 82 210 c 0
 115 222 l 0
 123 224 132 223 132 218 c 0
 132 111 l 0
 154 111 l 0
 174 111 174 86 154 86 c 0
 82 86 l 0
 62 86 62 111 82 111 c 0
EndSplineSet
EndChar

StartChar: twosuperior
Encoding: 129 178 128
Width: 235
VWidth: 0
Flags: HMW
LayerCount: 2
Fore
SplineSet
150 144 m 0
 117 111 l 0
 149 111 l 0
 149 127 168 127 168 111 c 0
 168 98 l 0
 168 92 165 86 158 86 c 0
 79 86 l 0
 66 86 64 97 71 103 c 0
 131 163 l 0
 141 174 138 188 133 192 c 0
 123 200 104 199 90 187 c 0
 79 178 67 192 76 202 c 0
 95 225 124 229 145 216 c 0
 171 197 169 166 150 144 c 0
EndSplineSet
EndChar

StartChar: threesuperior
Encoding: 130 179 129
Width: 235
VWidth: 0
Flags: HMW
LayerCount: 2
Fore
SplineSet
113 172 m 0
 118 172 128 172 131 177 c 0
 135 181 135 187 131 194 c 0
 121 204 101 198 91 194 c 0
 77 184 63 201 77 211 c 0
 105 229 138 227 152 206 c 0
 163 190 159 176 138 161 c 0
 170 149 174 119 154 99 c 0
 136 81 95 85 80 93 c 0
 63 101 71 122 88 116 c 0
 102 111 126 106 135 116 c 0
 144 125 142 137 138 141 c 0
 130 147 121 148 114 148 c 0
 98 149 98 172 113 172 c 0
EndSplineSet
EndChar

StartChar: foursuperior
Encoding: 131 8308 130
Width: 235
VWidth: 0
Flags: HMW
LayerCount: 2
Fore
SplineSet
118 149 m 0
 118 177 l 0
 102 149 l 0
 118 149 l 0
113 213 m 0
 120 223 142 223 142 212 c 0
 142 149 l 0
 158 149 158 130 142 130 c 0
 142 118 l 0
 158 118 158 99 142 99 c 0
 118 99 l 0
 102 99 102 118 118 118 c 0
 118 129 l 0
 79 129 l 0
 70 129 68 134 72 142 c 0
 113 213 l 0
EndSplineSet
EndChar

StartChar: fraction
Encoding: 132 8260 131
Width: 235
VWidth: 0
Flags: HMW
LayerCount: 2
Fore
SplineSet
83 103 m 0
 61 103 61 130 83 130 c 0
 161 130 l 0
 183 130 183 103 161 103 c 0
 83 103 l 0
EndSplineSet
EndChar

StartChar: onequarter
Encoding: 133 188 132
Width: 235
VWidth: 0
Flags: HMW
LayerCount: 2
Fore
SplineSet
124 91 m 0
 131 101 153 101 153 90 c 0
 153 27 l 0
 169 27 169 8 153 8 c 0
 153 -4 l 0
 169 -4 169 -23 153 -23 c 0
 129 -23 l 0
 113 -23 113 -4 129 -4 c 0
 129 7 l 0
 90 7 l 0
 81 7 79 12 83 20 c 0
 124 91 l 0
83 103 m 0
 61 103 61 130 83 130 c 0
 161 130 l 0
 183 130 183 103 161 103 c 0
 83 103 l 0
127 254 m 0
 131 254 134 251 134 247 c 0
 134 165 l 0
 146 165 l 0
 165 165 165 141 146 141 c 0
 99 141 l 0
 80 141 80 165 99 165 c 0
 110 165 l 0
 110 230 l 0
 105 230 l 0
 86 230 86 254 105 254 c 0
 127 254 l 0
129 27 m 0
 129 55 l 0
 113 27 l 0
 129 27 l 0
EndSplineSet
EndChar

StartChar: onehalf
Encoding: 134 189 133
Width: 235
VWidth: 0
Flags: HMW
LayerCount: 2
Fore
SplineSet
83 130 m 0
 161 130 l 0
 183 130 183 103 161 103 c 0
 83 103 l 0
 61 103 61 130 83 130 c 0
99 165 m 0
 110 165 l 0
 110 230 l 0
 105 230 l 0
 86 230 86 254 105 254 c 0
 127 254 l 0
 131 254 134 251 134 247 c 0
 134 165 l 0
 146 165 l 0
 165 165 165 141 146 141 c 0
 99 141 l 0
 80 141 80 165 99 165 c 0
146 -23 m 0
 82 -23 l 0
 74 -23 74 -15 83 -6 c 0
 124 42 l 0
 130 50 131 59 124 67 c 0
 117 74 109 71 104 66 c 0
 93 54 77 66 89 80 c 0
 110 101 133 96 146 81 c 0
 158 65 155 45 142 30 c 0
 116 0 l 0
 139 0 l 0
 139 15 157 15 157 0 c 0
 157 -14 l 0
 157 -18 152 -23 146 -23 c 0
EndSplineSet
EndChar

StartChar: threequarters
Encoding: 135 190 134
Width: 235
VWidth: 0
Flags: HMW
LayerCount: 2
Fore
SplineSet
166 103 m 0
 78 103 l 0
 63 103 63 130 78 130 c 0
 166 130 l 0
 181 130 181 103 166 103 c 0
90 7 m 0
 81 7 79 12 83 20 c 0
 124 91 l 0
 131 101 153 101 153 90 c 0
 153 27 l 0
 169 27 169 8 153 8 c 0
 153 -4 l 0
 169 -4 169 -23 153 -23 c 0
 129 -23 l 0
 113 -23 113 -4 129 -4 c 0
 129 7 l 0
 90 7 l 0
100 165 m 0
 112 158 127 157 132 164 c 0
 141 177 132 189 115 189 c 0
 102 189 102 212 116 212 c 0
 125 212 135 224 125 233 c 0
 120 237 110 236 101 230 c 0
 89 222 78 236 89 245 c 0
 110 260 132 262 144 247 c 0
 158 231 155 216 139 202 c 0
 159 194 169 167 149 147 c 0
 134 133 109 134 89 146 c 0
 79 154 86 173 100 165 c 0
129 27 m 0
 129 55 l 0
 113 27 l 0
 129 27 l 0
EndSplineSet
EndChar

StartChar: percent
Encoding: 136 37 135
Width: 235
VWidth: 0
Flags: HMW
LayerCount: 2
Fore
SplineSet
81 199 m 0
 72 191 72 171 81 162 c 0
 92 154 107 154 117 162 c 0
 126 171 126 191 117 199 c 0
 107 207 92 207 81 199 c 0
58 213 m 0
 78 233 121 233 140 213 c 0
 157 196 157 164 140 146 c 0
 121 127 78 127 58 146 c 0
 41 164 41 196 58 213 c 0
125 62 m 0
 116 54 116 34 125 25 c 0
 136 17 151 17 161 25 c 0
 170 34 170 54 161 62 c 0
 151 70 136 70 125 62 c 0
184 76 m 0
 201 59 201 27 184 9 c 0
 165 -10 122 -10 102 9 c 0
 85 27 85 59 102 76 c 0
 122 96 165 96 184 76 c 0
65 71 m 0
 45 65 37 94 55 100 c 0
 177 152 l 0
 197 158 205 129 187 123 c 0
 65 71 l 0
EndSplineSet
EndChar

StartChar: perthousand
Encoding: 137 8240 136
Width: 235
VWidth: 0
Flags: HMW
LayerCount: 2
Fore
SplineSet
30 83 m 0
 10 77 2 106 20 112 c 0
 185 164 l 0
 205 170 213 141 195 135 c 0
 30 83 l 0
149 76 m 0
 169 96 197 96 216 76 c 0
 233 59 233 27 216 9 c 0
 197 -10 169 -10 149 9 c 0
 132 27 132 59 149 76 c 0
51 76 m 0
 71 96 99 96 118 76 c 0
 135 59 135 27 118 9 c 0
 99 -10 71 -10 51 9 c 0
 34 27 34 59 51 76 c 0
18 213 m 0
 38 233 66 233 85 213 c 0
 102 196 102 164 85 146 c 0
 66 127 38 127 18 146 c 0
 1 164 1 196 18 213 c 0
172 62 m 0
 163 54 163 34 172 25 c 0
 177 18 188 18 193 25 c 0
 202 34 202 54 193 62 c 0
 185 68 179 67 172 62 c 0
74 62 m 0
 65 54 65 34 74 25 c 0
 79 18 90 18 95 25 c 0
 104 34 104 54 95 62 c 0
 87 68 81 67 74 62 c 0
41 199 m 0
 32 191 32 171 41 162 c 0
 46 155 57 155 62 162 c 0
 71 171 71 191 62 199 c 0
 54 205 48 204 41 199 c 0
EndSplineSet
EndChar

StartChar: degree
Encoding: 138 176 137
Width: 235
VWidth: 0
Flags: HMW
LayerCount: 2
Fore
SplineSet
150 229 m 0
 167 212 167 184 149 167 c 0
 132 150 104 150 87 167 c 0
 70 183 70 211 87 228 c 0
 105 246 133 246 150 229 c 0
104 183 m 0
 112 176 125 176 132 183 c 0
 140 191 140 204 133 212 c 0
 125 220 112 220 104 212 c 0
 96 204 96 191 104 183 c 0
EndSplineSet
EndChar

StartChar: periodcentered
Encoding: 139 183 138
Width: 235
VWidth: 0
Flags: HMW
LayerCount: 2
Fore
SplineSet
142 114 m 0
 158 101 158 83 142 72 c 0
 127 62 108 62 93 73 c 0
 77 86 77 104 93 115 c 0
 108 125 127 125 142 114 c 0
EndSplineSet
EndChar

StartChar: bullet
Encoding: 140 8226 139
Width: 235
VWidth: 0
Flags: HMW
LayerCount: 2
Fore
SplineSet
87 61 m 0
 71 74 71 114 87 127 c 0
 102 139 132 140 149 127 c 0
 165 114 165 74 149 61 c 0
 132 48 102 49 87 61 c 0
EndSplineSet
EndChar

StartChar: guilsinglleft
Encoding: 141 8249 140
Width: 235
VWidth: 0
Flags: HMW
LayerCount: 2
Fore
SplineSet
124 32 m 0
 79 82 l 0
 74 88 74 96 79 102 c 0
 124 150 l 0
 141 167 162 146 145 129 c 0
 113 92 l 0
 145 53 l 0
 162 36 141 15 124 32 c 0
EndSplineSet
EndChar

StartChar: guilsinglright
Encoding: 142 8250 141
Width: 235
VWidth: 0
Flags: HMW
LayerCount: 2
Fore
SplineSet
110 150 m 0
 155 102 l 0
 160 96 160 88 155 82 c 0
 110 32 l 0
 93 15 72 36 89 53 c 0
 121 92 l 0
 89 129 l 0
 72 146 93 167 110 150 c 0
EndSplineSet
EndChar

StartChar: guillemotleft
Encoding: 143 171 142
Width: 235
VWidth: 0
Flags: HMW
LayerCount: 2
Fore
SplineSet
194 129 m 0
 162 92 l 0
 194 53 l 0
 211 36 190 15 173 32 c 0
 128 82 l 0
 123 88 123 96 128 102 c 0
 173 150 l 0
 190 167 211 146 194 129 c 0
98 53 m 0
 115 36 94 15 77 32 c 0
 32 82 l 0
 27 88 27 96 32 102 c 0
 77 150 l 0
 94 167 115 146 98 129 c 0
 66 92 l 0
 98 53 l 0
EndSplineSet
EndChar

StartChar: guillemotright
Encoding: 144 187 143
Width: 235
VWidth: 0
Flags: HMW
LayerCount: 2
Fore
SplineSet
138 129 m 0
 121 146 142 167 159 150 c 0
 204 102 l 0
 209 96 209 88 204 82 c 0
 159 32 l 0
 142 15 121 36 138 53 c 0
 170 92 l 0
 138 129 l 0
42 53 m 0
 74 92 l 0
 42 129 l 0
 25 146 46 167 63 150 c 0
 108 102 l 0
 113 96 113 88 108 82 c 0
 63 32 l 0
 46 15 25 36 42 53 c 0
EndSplineSet
EndChar

StartChar: paragraph
Encoding: 145 182 144
Width: 235
VWidth: 0
Flags: HMW
LayerCount: 2
Fore
SplineSet
202 223 m 0
 226 223 226 193 202 193 c 0
 191 193 l 0
 191 -54 l 0
 191 -81 155 -81 155 -54 c 0
 155 193 l 0
 130 193 l 0
 130 -54 l 0
 130 -81 94 -81 94 -54 c 0
 94 86 l 0
 74 86 43 88 23 114 c 0
 5 137 3 179 28 201 c 0
 41 214 59 223 84 223 c 0
 202 223 l 0
EndSplineSet
EndChar

StartChar: section
Encoding: 146 167 145
Width: 235
VWidth: 0
Flags: HMW
LayerCount: 2
Fore
SplineSet
94 87 m 0
 132 61 l 0
 151 57 164 79 150 94 c 0
 112 121 l 0
 89 126 78 103 94 87 c 0
75 -24 m 0
 61 -1 69 15 84 15 c 0
 99 15 97 1 101 -10 c 0
 107 -21 126 -21 138 -10 c 0
 146 -2 149 10 128 25 c 0
 75 61 l 0
 29 97 64 139 89 141 c 0
 63 162 61 196 80 213 c 0
 104 233 145 232 163 213 c 0
 179 197 178 167 160 167 c 0
 134 167 146 188 135 200 c 0
 129 207 113 207 104 199 c 0
 97 193 92 174 121 153 c 0
 166 123 l 0
 186 110 194 71 179 57 c 0
 171 50 164 46 154 43 c 0
 183 21 176 -13 162 -26 c 0
 138 -49 92 -50 75 -24 c 0
EndSplineSet
EndChar

StartChar: plus
Encoding: 147 43 146
Width: 235
VWidth: 0
Flags: HMW
LayerCount: 2
Fore
SplineSet
102 33 m 0
 102 77 l 0
 57 77 l 0
 33 77 33 107 57 107 c 0
 102 107 l 0
 102 151 l 0
 102 175 132 175 132 151 c 0
 132 107 l 0
 175 107 l 0
 199 107 199 77 175 77 c 0
 132 77 l 0
 132 33 l 0
 132 9 102 9 102 33 c 0
EndSplineSet
EndChar

StartChar: multiply
Encoding: 148 215 147
Width: 235
VWidth: 0
Flags: HMW
LayerCount: 2
Fore
SplineSet
187 42 m 0
 204 25 183 4 166 21 c 0
 116 71 l 0
 66 21 l 0
 49 4 28 25 45 42 c 0
 95 92 l 0
 45 142 l 0
 28 159 49 180 66 163 c 0
 116 113 l 0
 166 163 l 0
 183 180 204 159 187 142 c 0
 137 92 l 0
 187 42 l 0
EndSplineSet
EndChar

StartChar: divide
Encoding: 149 247 148
Width: 235
VWidth: 0
Flags: HMW
LayerCount: 2
Fore
SplineSet
102 132 m 0
 94 140 94 153 102 161 c 0
 110 169 123 169 131 161 c 0
 138 153 138 140 130 132 c 0
 123 125 110 125 102 132 c 0
130 22 m 0
 122 15 109 15 102 22 c 0
 94 30 94 43 101 51 c 0
 109 59 122 59 130 51 c 0
 138 43 138 30 130 22 c 0
175 77 m 0
 57 77 l 0
 33 77 33 107 57 107 c 0
 175 107 l 0
 199 107 199 77 175 77 c 0
EndSplineSet
EndChar

StartChar: plusminus
Encoding: 150 177 149
Width: 235
VWidth: 0
Flags: HMW
LayerCount: 2
Fore
SplineSet
175 39 m 0
 199 39 199 9 175 9 c 0
 57 9 l 0
 33 9 33 39 57 39 c 0
 175 39 l 0
132 66 m 0
 132 42 102 42 102 66 c 0
 102 97 l 0
 57 97 l 0
 33 97 33 127 57 127 c 0
 102 127 l 0
 102 153 l 0
 102 177 132 177 132 153 c 0
 132 127 l 0
 175 127 l 0
 199 127 199 97 175 97 c 0
 132 97 l 0
 132 66 l 0
EndSplineSet
EndChar

StartChar: endash
Encoding: 151 8211 150
Width: 235
VWidth: 0
Flags: HMW
LayerCount: 2
Fore
SplineSet
87 77 m 0
 63 77 63 107 87 107 c 0
 144 107 l 0
 168 107 168 77 144 77 c 0
 87 77 l 0
EndSplineSet
EndChar

StartChar: emdash
Encoding: 152 8212 151
Width: 235
VWidth: 0
Flags: HMW
LayerCount: 2
Fore
SplineSet
235 107 m 0
 259 107 259 77 235 77 c 0
 0 77 l 0
 -24 77 -24 107 0 107 c 0
 235 107 l 0
EndSplineSet
EndChar

StartChar: minus
Encoding: 153 8722 152
Width: 235
VWidth: 0
Flags: HMW
LayerCount: 2
Fore
SplineSet
175 77 m 0
 57 77 l 0
 33 77 33 107 57 107 c 0
 175 107 l 0
 199 107 199 77 175 77 c 0
EndSplineSet
EndChar

StartChar: bracketleft
Encoding: 154 91 153
Width: 235
VWidth: 0
Flags: HMW
LayerCount: 2
Fore
SplineSet
84 -61 m 0
 84 230 l 0
 84 239 89 244 98 244 c 0
 145 244 l 0
 169 244 169 214 145 214 c 0
 124 214 l 0
 124 -45 l 0
 145 -45 l 0
 169 -45 169 -75 145 -75 c 0
 98 -75 l 0
 89 -75 84 -70 84 -61 c 0
EndSplineSet
EndChar

StartChar: bracketright
Encoding: 155 93 154
Width: 235
VWidth: 0
Flags: HMW
LayerCount: 2
Fore
SplineSet
96 -75 m 0
 72 -75 72 -45 96 -45 c 0
 117 -45 l 0
 117 214 l 0
 96 214 l 0
 72 214 72 244 96 244 c 0
 143 244 l 0
 152 244 157 239 157 230 c 0
 157 -61 l 0
 157 -70 152 -75 143 -75 c 0
 96 -75 l 0
EndSplineSet
EndChar

StartChar: dagger
Encoding: 156 8224 155
Width: 235
VWidth: 0
Flags: HMW
LayerCount: 2
Fore
SplineSet
139 -49 m 0
 140 -83 99 -83 99 -49 c 0
 99 141 l 0
 77 141 l 0
 53 141 53 171 77 171 c 0
 99 171 l 0
 92 213 92 244 119 245 c 0
 146 244 146 213 139 171 c 0
 161 171 l 0
 185 171 185 141 161 141 c 0
 139 141 l 0
 139 -49 l 0
EndSplineSet
EndChar

StartChar: daggerdbl
Encoding: 157 8225 156
Width: 235
VWidth: 0
Flags: HMW
LayerCount: 2
Fore
SplineSet
161 0 m 0
 139 0 l 0
 146 -42 146 -73 119 -74 c 0
 92 -73 92 -42 99 0 c 0
 77 0 l 0
 53 0 53 30 77 30 c 0
 99 30 l 0
 99 141 l 0
 77 141 l 0
 53 141 53 171 77 171 c 0
 99 171 l 0
 92 213 92 244 119 245 c 0
 146 244 146 213 139 171 c 0
 161 171 l 0
 185 171 185 141 161 141 c 0
 139 141 l 0
 139 30 l 0
 161 30 l 0
 185 30 185 0 161 0 c 0
EndSplineSet
EndChar

StartChar: braceleft
Encoding: 158 123 157
Width: 235
VWidth: 0
Flags: HMW
LayerCount: 2
Fore
SplineSet
84 100 m 0
 93 100 98 105 98 121 c 0
 98 197 l 0
 98 235 115 244 149 244 c 0
 173 244 173 214 149 214 c 0
 142 214 138 208 138 197 c 0
 138 121 l 0
 138 100 128 90 115 85 c 0
 128 80 138 70 138 49 c 0
 138 -28 l 0
 138 -39 142 -45 149 -45 c 0
 173 -45 173 -75 149 -75 c 0
 115 -75 98 -66 98 -28 c 0
 98 49 l 0
 98 65 93 70 84 70 c 0
 60 70 60 100 84 100 c 0
EndSplineSet
EndChar

StartChar: braceright
Encoding: 159 125 158
Width: 235
VWidth: 0
Flags: HMW
LayerCount: 2
Fore
SplineSet
149 100 m 0
 173 100 173 70 149 70 c 0
 140 70 135 65 135 49 c 0
 135 -28 l 0
 135 -66 118 -75 84 -75 c 0
 60 -75 60 -45 84 -45 c 0
 91 -45 95 -39 95 -28 c 0
 95 49 l 0
 95 70 105 80 118 85 c 0
 105 90 95 100 95 121 c 0
 95 197 l 0
 95 208 91 214 84 214 c 0
 60 214 60 244 84 244 c 0
 118 244 135 235 135 197 c 0
 135 121 l 0
 135 105 140 100 149 100 c 0
EndSplineSet
EndChar

StartChar: at
Encoding: 160 64 159
Width: 235
VWidth: 0
Flags: HMW
LayerCount: 2
Fore
SplineSet
154 117 m 0
 150 118 142 119 138 116 c 0
 126 107 127 73 134 66 c 0
 142 58 147 60 154 63 c 0
 154 117 l 0
201 47 m 0
 216 29 194 12 181 26 c 0
 169 38 l 0
 152 29 129 23 106 46 c 0
 81 70 84 122 112 139 c 0
 132 150 142 149 156 147 c 0
 156 163 150 173 146 178 c 0
 132 194 105 195 90 176 c 0
 66 144 65 38 88 4 c 0
 107 -24 144 -17 160 -7 c 0
 179 4 190 -22 174 -32 c 0
 160 -45 93 -67 57 -14 c 0
 31 22 12 138 61 197 c 0
 86 229 148 232 175 205 c 0
 186 194 195 178 195 153 c 0
 195 55 l 0
 201 47 l 0
EndSplineSet
EndChar

StartChar: ampersand
Encoding: 161 38 160
Width: 235
VWidth: 0
Flags: HMW
LayerCount: 2
Fore
SplineSet
105 159 m 0
 126 172 137 190 132 204 c 0
 126 219 106 221 97 211 c 0
 89 200 89 179 105 159 c 0
71 43 m 0
 87 17 120 18 139 41 c 0
 87 113 l 0
 61 92 60 62 71 43 c 0
179 125 m 0
 202 125 l 0
 226 125 226 95 202 95 c 0
 198 95 l 0
 194 82 187 65 179 47 c 0
 189 30 l 0
 194 30 l 0
 218 30 218 0 194 0 c 0
 180 0 l 0
 170 0 162 9 156 19 c 0
 128 -13 64 -15 39 25 c 0
 16 61 25 99 73 140 c 0
 51 169 47 200 63 223 c 0
 83 253 130 252 152 231 c 0
 169 213 173 188 157 165 c 0
 151 156 134 142 119 134 c 0
 160 75 l 0
 171 95 162 125 179 125 c 0
EndSplineSet
EndChar

StartChar: asciicircum
Encoding: 162 94 161
Width: 235
VWidth: 0
Flags: HMW
LayerCount: 2
Fore
SplineSet
37 170 m 0
 107 260 l 0
 113 267 125 267 132 260 c 0
 200 169 l 0
 213 151 188 138 178 151 c 0
 126 222 l 0
 123 226 117 226 114 222 c 0
 60 151 l 0
 48 137 25 155 37 170 c 0
EndSplineSet
EndChar

StartChar: bar
Encoding: 163 124 162
Width: 235
VWidth: 0
Flags: HMW
LayerCount: 2
Fore
SplineSet
139 -61 m 0
 139 -77 99 -77 99 -61 c 0
 99 234 l 0
 99 250 139 250 139 234 c 0
 139 -61 l 0
EndSplineSet
EndChar

StartChar: brokenbar
Encoding: 164 166 163
Width: 235
VWidth: 0
Flags: HMW
LayerCount: 2
Fore
SplineSet
99 234 m 0
 99 250 139 250 139 234 c 0
 139 128 l 0
 139 112 99 112 99 128 c 0
 99 234 l 0
139 -61 m 0
 139 -77 99 -77 99 -61 c 0
 99 45 l 0
 99 61 139 61 139 45 c 0
 139 -61 l 0
EndSplineSet
EndChar

StartChar: logicalnot
Encoding: 165 172 164
Width: 235
VWidth: 0
Flags: HMW
LayerCount: 2
Fore
SplineSet
24 62 m 0
 24 86 l 0
 212 86 l 0
 212 0 l 0
 188 0 l 0
 188 62 l 0
 24 62 l 0
EndSplineSet
EndChar

StartChar: copyright
Encoding: 166 169 165
Width: 235
VWidth: 0
Flags: HMW
LayerCount: 2
Fore
SplineSet
183 177 m 0
 217 143 217 83 181 48 c 0
 147 12 88 12 52 48 c 0
 18 82 18 141 54 177 c 0
 90 212 147 212 183 177 c 0
170 163 m 0
 141 192 95 192 67 163 c 0
 38 135 38 88 65 60 c 0
 94 32 141 32 168 60 c 0
 197 89 197 136 170 163 c 0
158 75 m 0
 135 48 105 46 82 69 c 0
 64 87 62 134 88 158 c 0
 101 169 120 177 134 161 c 0
 134 173 152 173 152 161 c 0
 152 135 l 0
 152 123 134 123 134 136 c 0
 134 142 117 157 101 141 c 0
 91 130 87 104 96 87 c 0
 105 72 130 67 146 86 c 0
 155 96 166 86 158 75 c 0
EndSplineSet
EndChar

StartChar: registered
Encoding: 167 174 166
Width: 235
VWidth: 0
Flags: HMW
LayerCount: 2
Fore
SplineSet
113 150 m 0
 105 150 l 0
 105 119 l 0
 114 119 l 0
 140 119 140 150 113 150 c 0
54 177 m 0
 90 212 147 212 183 177 c 0
 217 143 217 83 181 48 c 0
 147 12 88 12 52 48 c 0
 18 82 18 141 54 177 c 0
168 60 m 0
 197 89 197 136 170 163 c 0
 141 192 95 192 67 163 c 0
 38 135 38 88 65 60 c 0
 94 32 141 32 168 60 c 0
110 53 m 0
 86 53 l 0
 71 53 71 73 86 73 c 0
 86 150 l 0
 71 150 71 170 86 170 c 0
 127 170 l 0
 132 170 140 167 146 159 c 0
 156 145 155 129 147 118 c 0
 144 114 139 107 127 106 c 0
 139 95 144 87 150 73 c 0
 166 73 166 53 152 53 c 0
 126 53 131 98 105 98 c 0
 105 73 l 0
 110 73 l 0
 123 73 123 53 110 53 c 0
EndSplineSet
EndChar

StartChar: trademark
Encoding: 168 8482 167
Width: 235
VWidth: 0
Flags: HMW
LayerCount: 2
Fore
SplineSet
122 112 m 0
 110 112 110 132 122 132 c 0
 122 200 l 0
 110 200 110 223 122 223 c 0
 144 223 l 0
 146 223 148 221 149 218 c 0
 169 169 l 0
 189 218 l 0
 190 221 191 223 193 223 c 0
 217 223 l 0
 229 223 229 200 217 200 c 0
 217 132 l 0
 221 132 l 0
 233 132 233 112 221 112 c 0
 193 112 l 0
 181 112 181 132 193 132 c 0
 193 183 l 0
 179 143 l 0
 177 135 162 134 160 143 c 0
 142 190 l 0
 142 132 l 0
 145 132 l 0
 157 132 157 112 145 112 c 0
 122 112 l 0
83 112 m 0
 34 112 l 0
 24 112 23 132 34 132 c 0
 46 132 l 0
 46 200 l 0
 29 200 l 0
 28 181 l 0
 27 171 9 170 9 181 c 0
 9 217 l 0
 9 220 9 223 13 223 c 0
 104 223 l 0
 107 223 109 221 109 218 c 0
 109 182 l 0
 109 171 91 169 90 182 c 0
 88 200 l 0
 72 200 l 0
 72 132 l 0
 83 132 l 0
 94 132 94 112 83 112 c 0
EndSplineSet
EndChar

StartChar: ordmasculine
Encoding: 169 186 168
Width: 235
VWidth: 0
Flags: HMW
LayerCount: 2
Fore
SplineSet
139 148 m 0
 150 160 150 179 139 190 c 0
 128 201 110 201 99 190 c 0
 87 179 87 159 98 148 c 0
 109 137 128 137 139 148 c 0
81 64 m 0
 57 64 57 94 81 94 c 0
 154 94 l 0
 178 94 178 64 154 64 c 0
 81 64 l 0
162 126 m 0
 138 103 97 103 74 126 c 0
 54 146 54 190 74 210 c 0
 98 234 139 234 162 210 c 0
 182 190 182 146 162 126 c 0
EndSplineSet
EndChar

StartChar: ordfeminine
Encoding: 170 170 169
Width: 235
VWidth: 0
Flags: HMW
LayerCount: 2
Fore
SplineSet
136 118 m 0
 136 128 l 0
 113 105 83 103 68 123 c 0
 55 141 61 162 78 175 c 0
 92 185 114 187 135 184 c 0
 135 191 135 196 130 200 c 0
 119 208 100 204 91 200 c 0
 75 191 65 214 81 222 c 0
 97 230 138 234 158 213 c 0
 163 207 166 199 166 195 c 0
 166 135 l 0
 170 135 l 0
 185 135 185 112 170 112 c 0
 142 112 l 0
 139 112 136 115 136 118 c 0
159 64 m 0
 86 64 l 0
 62 64 62 94 86 94 c 0
 159 94 l 0
 183 94 183 64 159 64 c 0
94 141 m 0
 102 130 118 136 136 148 c 0
 136 163 l 0
 120 165 103 165 97 158 c 0
 92 152 90 146 94 141 c 0
EndSplineSet
EndChar

StartChar: numbersign
Encoding: 171 35 170
Width: 235
VWidth: 0
Flags: HMW
LayerCount: 2
Fore
SplineSet
97 65 m 0
 127 65 l 0
 135 99 l 0
 105 99 l 0
 97 65 l 0
95 222 m 0
 98 233 106 234 118 234 c 0
 124 234 138 233 136 222 c 0
 113 129 l 0
 142 129 l 0
 165 222 l 0
 168 233 176 234 188 234 c 0
 194 234 208 233 206 222 c 0
 184 129 l 0
 191 129 l 0
 215 129 215 99 191 99 c 0
 176 99 l 0
 168 65 l 0
 177 65 l 0
 201 65 201 35 177 35 c 0
 161 35 l 0
 137 -62 l 0
 134 -73 126 -74 114 -74 c 0
 108 -74 94 -73 96 -62 c 0
 120 35 l 0
 90 35 l 0
 67 -62 l 0
 64 -73 56 -74 44 -74 c 0
 38 -74 24 -73 26 -62 c 0
 49 35 l 0
 43 35 l 0
 19 35 19 65 43 65 c 0
 56 65 l 0
 64 99 l 0
 57 99 l 0
 33 99 33 129 57 129 c 0
 72 129 l 0
 95 222 l 0
EndSplineSet
EndChar

StartChar: currency
Encoding: 172 164 171
Width: 235
VWidth: 0
Flags: HMW
LayerCount: 2
Fore
SplineSet
155 73 m 0
 175 93 173 126 154 145 c 0
 134 165 103 165 83 145 c 0
 63 125 63 92 82 73 c 0
 102 53 136 53 155 73 c 0
63 24 m 0
 46 7 24 29 41 45 c 0
 56 60 l 0
 34 83 34 133 56 157 c 0
 41 172 l 0
 24 188 45 211 62 194 c 0
 78 178 l 0
 101 192 134 192 158 177 c 0
 176 194 l 0
 193 211 214 190 197 173 c 0
 181 158 l 0
 203 133 205 83 182 59 c 0
 197 45 l 0
 214 28 193 7 176 24 c 0
 158 41 l 0
 136 26 101 26 79 40 c 0
 63 24 l 0
EndSplineSet
EndChar

StartChar: yen
Encoding: 173 165 172
Width: 235
VWidth: 0
Flags: HMW
LayerCount: 2
Fore
SplineSet
86 193 m 0
 78 193 l 0
 123 111 l 0
 169 193 l 0
 157 193 l 0
 133 193 133 223 157 223 c 0
 208 223 l 0
 232 223 232 193 208 193 c 0
 200 193 l 0
 167 133 l 0
 194 133 l 0
 210 133 210 107 194 107 c 0
 152 107 l 0
 139 83 l 0
 194 83 l 0
 210 83 210 57 194 57 c 0
 139 57 l 0
 139 30 l 0
 166 30 l 0
 190 30 190 0 166 0 c 0
 75 0 l 0
 51 0 51 30 75 30 c 0
 99 30 l 0
 99 57 l 0
 44 57 l 0
 28 57 28 83 44 83 c 0
 99 83 l 0
 85 107 l 0
 44 107 l 0
 28 107 28 133 44 133 c 0
 71 133 l 0
 39 193 l 0
 35 193 l 0
 11 193 11 223 35 223 c 0
 86 223 l 0
 110 223 110 193 86 193 c 0
EndSplineSet
EndChar

StartChar: cent
Encoding: 174 162 173
Width: 235
VWidth: 0
Flags: HMW
LayerCount: 2
Fore
SplineSet
89 37 m 0
 116 12 156 28 190 56 c 0
 205 71 224 53 209 37 c 0
 195 22 163 0 139 -4 c 0
 139 -35 l 0
 139 -59 109 -59 109 -35 c 0
 109 -5 l 0
 88 -5 68 9 58 17 c 0
 18 52 21 121 58 154 c 0
 75 169 88 174 109 176 c 0
 109 205 l 0
 109 229 139 229 139 205 c 0
 139 176 l 0
 150 174 165 169 179 158 c 0
 179 182 209 182 209 158 c 0
 209 115 l 0
 209 91 179 91 179 115 c 0
 157 156 102 152 81 126 c 0
 61 102 64 60 89 37 c 0
EndSplineSet
EndChar

StartChar: dollar
Encoding: 175 36 174
Width: 235
VWidth: 0
Flags: HMW
LayerCount: 2
Fore
SplineSet
150 57 m 0
 156 65 159 79 153 88 c 0
 148 95 141 99 135 102 c 0
 131 48 l 0
 136 48 143 49 150 57 c 0
91 159 m 0
 97 152 102 149 109 146 c 0
 113 197 l 0
 107 197 99 197 91 189 c 0
 85 181 86 168 91 159 c 0
185 97 m 0
 200 74 192 53 177 39 c 0
 160 23 142 20 128 20 c 0
 125 -30 l 0
 125 -54 93 -54 93 -30 c 0
 97 21 l 0
 90 23 80 28 74 35 c 0
 74 14 44 14 44 38 c 0
 46 70 l 0
 46 94 76 94 76 72 c 0
 81 62 90 52 100 52 c 0
 105 115 l 0
 90 120 69 131 59 144 c 0
 46 162 46 187 65 208 c 0
 80 224 101 227 115 227 c 0
 116 244 l 0
 116 268 148 268 148 244 c 0
 146 223 l 0
 152 221 157 217 162 212 c 0
 162 234 192 234 192 210 c 0
 190 188 l 0
 190 164 160 164 160 186 c 0
 156 190 150 194 144 195 c 0
 138 132 l 0
 153 127 170 119 185 97 c 0
EndSplineSet
EndChar

StartChar: less
Encoding: 187 60 186
Width: 235
VWidth: 0
Flags: HMW
LayerCount: 2
Fore
SplineSet
166 208 m 0
 185 221 204 198 185 184 c 0
 88 113 l 0
 185 36 l 0
 204 22 185 -1 166 12 c 0
 50 103 l 0
 40 111 40 115 50 123 c 0
 166 208 l 0
EndSplineSet
EndChar

StartChar: greater
Encoding: 188 62 187
Width: 235
VWidth: 0
Flags: HMW
LayerCount: 2
Fore
SplineSet
70 208 m 0
 185 123 l 0
 195 115 195 111 185 103 c 0
 70 12 l 0
 51 -1 32 22 51 36 c 0
 147 113 l 0
 51 184 l 0
 32 198 51 221 70 208 c 0
EndSplineSet
EndChar

StartChar: mu
Encoding: 189 181 188
Width: 235
VWidth: 0
Flags: HMW
LayerCount: 2
Fore
SplineSet
74 54 m 0
 74 9 132 19 151 48 c 0
 151 156 l 0
 151 183 191 183 191 156 c 0
 191 28 l 0
 191 16 203 22 211 29 c 0
 218 35 231 24 224 14 c 0
 206 -10 159 -15 159 25 c 0
 128 -9 94 -11 65 8 c 0
 65 -27 l 0
 74 -65 66 -76 49 -76 c 0
 33 -76 25 -65 34 -27 c 0
 34 156 l 0
 34 183 74 183 74 156 c 0
 74 54 l 0
EndSplineSet
EndChar

StartChar: slash
Encoding: 190 47 189
Width: 235
VWidth: 0
Flags: HMW
LayerCount: 2
Fore
SplineSet
165 235 m 0
 177 257 208 242 196 219 c 0
 65 -62 l 0
 53 -84 22 -69 34 -46 c 0
 165 235 l 0
EndSplineSet
EndChar

StartChar: backslash
Encoding: 191 92 190
Width: 235
VWidth: 0
Flags: HMW
LayerCount: 2
Fore
SplineSet
165 -62 m 0
 34 219 l 0
 22 242 53 257 65 235 c 0
 196 -46 l 0
 208 -69 177 -84 165 -62 c 0
EndSplineSet
EndChar

StartChar: AE
Encoding: 192 198 191
Width: 235
VWidth: 0
Flags: HMW
LayerCount: 2
Fore
SplineSet
62 30 m 0
 88 30 88 0 64 0 c 0
 21 0 l 0
 -3 0 -3 30 21 30 c 0
 88 193 l 0
 71 193 l 0
 47 193 47 223 71 223 c 0
 211 223 l 0
 224 223 229 219 229 211 c 0
 229 185 l 0
 229 161 199 161 199 185 c 0
 199 193 l 0
 159 193 l 0
 159 135 l 0
 172 135 l 0
 172 159 202 159 202 135 c 0
 202 105 l 0
 202 81 172 81 172 105 c 0
 159 105 l 0
 159 30 l 0
 202 30 l 0
 202 38 l 0
 202 62 232 62 232 38 c 0
 232 19 l 0
 232 3 229 0 215 0 c 0
 115 0 l 0
 91 0 91 30 115 30 c 0
 119 30 l 0
 119 64 l 0
 75 64 l 0
 62 30 l 0
119 94 m 0
 119 171 l 0
 87 94 l 0
 119 94 l 0
EndSplineSet
EndChar

StartChar: OE
Encoding: 193 338 192
Width: 235
VWidth: 0
Flags: HMW
LayerCount: 2
Fore
SplineSet
210 0 m 0
 129 0 l 0
 91 -11 69 -2 43 23 c 0
 2 64 2 158 43 199 c 0
 69 225 91 234 129 223 c 0
 207 223 l 0
 221 223 225 220 225 207 c 0
 225 185 l 0
 225 161 195 161 195 185 c 0
 195 193 l 0
 159 193 l 0
 159 135 l 0
 172 135 l 0
 172 159 202 159 202 135 c 0
 202 105 l 0
 202 81 172 81 172 105 c 0
 159 105 l 0
 159 30 l 0
 198 30 l 0
 198 38 l 0
 198 62 228 62 228 38 c 0
 228 16 l 0
 228 3 224 0 210 0 c 0
75 42 m 0
 90 24 106 16 119 31 c 0
 119 193 l 0
 106 208 90 200 75 182 c 0
 48 149 48 75 75 42 c 0
EndSplineSet
EndChar

StartChar: Eth
Encoding: 194 208 193
Width: 235
VWidth: 0
Flags: HMW
LayerCount: 2
Fore
SplineSet
98 142 m 0
 114 142 114 116 98 116 c 0
 16 116 l 0
 0 116 0 142 16 142 c 0
 98 142 l 0
EndSplineSet
Refer: 67 68 N 1 0 0 1 0 0 0
EndChar

StartChar: Thorn
Encoding: 195 222 194
Width: 235
VWidth: 0
Flags: HMW
LayerCount: 2
Fore
SplineSet
169 138 m 0
 159 147 151 149 136 149 c 0
 99 149 l 0
 99 89 l 0
 135 89 l 0
 144 89 161 91 170 102 c 0
 178 111 178 130 169 138 c 0
137 223 m 0
 161 223 161 193 137 193 c 0
 99 193 l 0
 99 179 l 0
 135 179 l 0
 149 179 173 180 195 162 c 0
 224 139 221 104 197 80 c 0
 181 64 156 59 135 59 c 0
 99 59 l 0
 99 30 l 0
 137 30 l 0
 161 30 161 0 137 0 c 0
 41 0 l 0
 17 0 17 30 41 30 c 0
 59 30 l 0
 59 193 l 0
 41 193 l 0
 17 193 17 223 41 223 c 0
 137 223 l 0
EndSplineSet
EndChar

StartChar: Eng
Encoding: 196 330 195
Width: 235
VWidth: 0
Flags: HMW
LayerCount: 2
Fore
SplineSet
87 172 m 0
 82 166 74 157 69 150 c 0
 69 30 l 0
 78 30 83 30 87 26 c 0
 93 19 93 10 88 4 c 0
 83 0 73 0 62 0 c 0
 35 0 l 0
 23 0 14 0 9 5 c 0
 2 11 2 19 9 26 c 0
 12 29 20 30 29 30 c 0
 29 193 l 0
 20 193 13 193 9 197 c 0
 3 203 3 212 9 218 c 0
 14 223 22 223 34 223 c 0
 69 223 l 0
 69 195 l 0
 103 235 162 239 194 206 c 0
 201 199 206 192 209 182 c 0
 213 171 215 152 215 123 c 0
 215 91 l 0
 215 52 214 28 192 8 c 0
 175 -7 141 -9 129 2 c 0
 122 9 122 22 129 28 c 0
 140 39 155 25 165 35 c 0
 173 44 174 64 175 89 c 0
 175 133 l 0
 175 159 172 175 161 186 c 0
 142 205 109 195 87 172 c 0
EndSplineSet
EndChar

StartChar: Hbar
Encoding: 197 294 196
Width: 235
VWidth: 0
Flags: HMW
LayerCount: 2
Fore
SplineSet
206 175 m 0
 230 175 230 145 206 145 c 0
 25 145 l 0
 1 145 1 175 25 175 c 0
 206 175 l 0
EndSplineSet
Refer: 71 72 N 1 0 0 1 0 0 0
EndChar

StartChar: Lslash
Encoding: 198 321 197
Width: 235
VWidth: 0
Flags: HMW
LayerCount: 2
Fore
SplineSet
18 71 m 0
 3 63 3 91 18 100 c 0
 132 165 l 0
 146 173 143 141 132 135 c 0
 18 71 l 0
EndSplineSet
Refer: 75 76 N 1 0 0 1 0 0 0
EndChar

StartChar: Oslash
Encoding: 199 216 198
Width: 235
VWidth: 0
Flags: HMW
LayerCount: 2
Fore
SplineSet
149 185 m 0
 129 204 98 204 78 172 c 0
 58 141 55 100 71 64 c 0
 149 185 l 0
159 51 m 0
 176 76 182 118 169 153 c 0
 92 34 l 0
 113 18 142 23 159 51 c 0
63 -12 m 0
 50 -32 20 -15 34 7 c 0
 47 27 l 0
 13 73 5 148 49 197 c 0
 82 234 137 235 167 214 c 0
 180 234 l 0
 193 254 223 237 209 215 c 0
 194 191 l 0
 229 145 227 66 188 26 c 0
 152 -11 105 -11 74 6 c 0
 63 -12 l 0
EndSplineSet
EndChar

StartChar: cedilla
Encoding: 210 184 209
Width: 235
VWidth: 0
Flags: HMW
LayerCount: 2
Fore
SplineSet
96 0 m 0
 127 0 l 0
 110 -23 182 -14 150 -62 c 0
 139 -78 92 -83 73 -56 c 0
 65 -45 75 -31 87 -37 c 0
 108 -47 121 -52 125 -43 c 0
 130 -30 98 -32 91 -17 c 0
 89 -12 92 -4 96 0 c 0
EndSplineSet
EndChar

StartChar: Euro
Encoding: 219 8364 215
Width: 235
VWidth: 0
Flags: HMW
LayerCount: 2
Fore
SplineSet
205 51 m 0
 224 51 223 31 206 16 c 0
 169 -19 79 -10 40 28 c 0
 27 41 18 58 14 79 c 0
 8 79 4 80 2 83 c 0
 -1 87 0 97 3 100 c 0
 5 102 8 103 12 103 c 0
 12 120 l 0
 7 120 4 121 2 123 c 0
 -1 127 0 136 3 140 c 0
 5 143 9 144 13 144 c 0
 17 168 27 190 44 207 c 0
 78 240 137 248 179 222 c 0
 180 224 181 225 183 226 c 0
 190 234 203 234 210 227 c 0
 214 223 216 216 216 206 c 0
 216 172 l 0
 216 163 214 156 210 151 c 0
 203 145 193 146 187 152 c 0
 180 160 182 174 171 186 c 0
 152 209 110 212 86 197 c 0
 68 187 54 170 50 143 c 0
 152 143 l 0
 157 143 161 143 163 141 c 0
 167 137 164 127 161 124 c 0
 158 121 154 120 148 120 c 0
 48 120 l 0
 47 114 47 108 48 103 c 0
 143 103 l 0
 148 103 152 102 154 100 c 0
 157 96 155 87 152 83 c 0
 149 80 145 79 139 79 c 0
 50 79 l 0
 58 47 85 24 129 24 c 0
 181 24 187 51 205 51 c 0
EndSplineSet
EndChar

StartChar: exclamdown
Encoding: 220 161 216
Width: 235
VWidth: 0
Flags: HMW
LayerCount: 2
Fore
SplineSet
93 168 m 0
 108 179 127 179 142 169 c 0
 158 158 158 140 142 127 c 0
 127 116 108 116 93 126 c 0
 77 137 77 155 93 168 c 0
125 -63 m 0
 111 -63 l 0
 101 -61 96 -56 95 -49 c 0
 98 75 l 0
 99 83 102 88 110 90 c 0
 126 90 l 0
 134 88 137 83 138 75 c 0
 141 -49 l 0
 140 -56 135 -61 125 -63 c 0
EndSplineSet
EndChar

StartChar: dotlessj
Encoding: 221 567 217
Width: 235
VWidth: 0
Flags: HMW
LayerCount: 2
Fore
SplineSet
64 -44 m 0
 99 -45 137 -51 137 -13 c 0
 137 141 l 0
 64 141 l 0
 40 141 40 171 64 171 c 0
 168 171 l 0
 174 171 177 168 177 162 c 0
 177 -13 l 0
 177 -24 175 -44 162 -57 c 0
 136 -84 83 -75 63 -74 c 0
 39 -73 40 -42 64 -44 c 0
EndSplineSet
EndChar

StartChar: kgreenlandic
Encoding: 222 312 218
Width: 235
VWidth: 0
Flags: HMW
LayerCount: 2
Fore
SplineSet
199 0 m 0
 151 0 l 0
 127 0 127 30 151 30 c 0
 99 82 l 0
 86 73 l 0
 86 9 l 0
 86 4 82 0 77 0 c 0
 36 0 l 0
 12 0 12 30 36 30 c 0
 46 30 l 0
 46 141 l 0
 36 141 l 0
 12 141 12 171 36 171 c 0
 77 171 l 0
 82 171 86 167 86 162 c 0
 86 106 l 0
 137 141 l 0
 113 141 113 171 137 171 c 0
 190 171 l 0
 214 171 214 141 190 141 c 0
 185 141 l 0
 123 98 l 0
 196 30 l 0
 199 30 l 0
 223 30 223 0 199 0 c 0
EndSplineSet
EndChar

StartChar: germandbls
Encoding: 223 223 219
Width: 235
VWidth: 0
Flags: HMW
LayerCount: 2
Fore
SplineSet
65 0 m 0
 42 0 l 0
 18 0 18 30 42 30 c 0
 47 30 l 0
 47 154 l 0
 47 200 62 218 81 232 c 0
 113 254 159 249 180 226 c 0
 195 209 201 187 190 166 c 0
 183 156 174 146 161 140 c 0
 172 136 188 126 195 118 c 0
 221 86 213 45 187 23 c 0
 170 9 160 0 125 0 c 0
 101 0 101 30 125 30 c 0
 136 30 148 36 158 46 c 0
 173 62 173 93 157 107 c 0
 150 113 132 117 124 119 c 0
 112 122 111 134 119 138 c 0
 128 143 138 148 148 161 c 0
 160 176 161 191 147 203 c 0
 138 210 118 213 102 199 c 0
 92 190 87 170 87 156 c 0
 87 30 l 0
 87 5 75 0 65 0 c 0
EndSplineSet
EndChar

StartChar: ae
Encoding: 224 230 220
Width: 235
VWidth: 0
Flags: HMW
LayerCount: 2
Fore
SplineSet
108 77 m 0
 79 77 l 0
 67 77 60 72 53 65 c 0
 44 55 45 46 50 38 c 0
 59 25 82 27 97 43 c 0
 105 53 108 64 108 77 c 0
200 107 m 0
 200 112 198 124 191 133 c 0
 180 146 165 147 153 133 c 0
 146 123 143 112 143 107 c 0
 200 107 l 0
214 77 m 0
 143 77 l 0
 143 67 143 53 148 45 c 0
 168 17 198 30 217 39 c 0
 231 47 242 32 231 19 c 0
 210 -11 149 -15 118 20 c 0
 86 -11 27 -13 11 15 c 0
 -5 45 2 71 19 88 c 0
 38 107 65 107 77 107 c 0
 108 107 l 0
 110 118 107 131 100 138 c 0
 87 148 58 144 51 138 c 0
 35 124 17 149 35 161 c 0
 59 178 98 186 131 157 c 0
 157 182 195 183 216 158 c 0
 231 140 235 117 235 103 c 0
 235 79 223 77 214 77 c 0
EndSplineSet
EndChar

StartChar: oe
Encoding: 225 339 221
Width: 235
VWidth: 0
Flags: HMW
LayerCount: 2
Fore
SplineSet
192 132 m 0
 178 150 161 152 145 132 c 0
 139 123 140 111 140 104 c 0
 199 104 l 0
 200 109 198 123 192 132 c 0
88 35 m 0
 104 59 104 111 88 135 c 0
 78 148 68 148 58 135 c 0
 42 111 42 59 58 35 c 0
 68 22 78 22 88 35 c 0
119 151 m 0
 147 190 199 179 217 150 c 0
 228 134 229 112 229 99 c 0
 229 83 225 74 211 74 c 0
 140 74 l 0
 140 63 140 46 149 35 c 0
 161 19 191 23 206 43 c 0
 213 52 231 43 220 26 c 0
 194 -15 137 -16 119 25 c 0
 96 -15 48 -16 25 26 c 0
 4 64 3 111 25 145 c 0
 51 186 94 185 119 151 c 0
EndSplineSet
EndChar

StartChar: eth
Encoding: 226 240 222
Width: 235
VWidth: 0
Flags: HMW
LayerCount: 2
Fore
SplineSet
83 41 m 0
 102 21 140 21 158 48 c 0
 174 72 172 102 155 121 c 0
 135 143 101 143 84 126 c 0
 64 103 65 61 83 41 c 0
181 204 m 0
 217 161 224 60 178 18 c 0
 141 -16 80 -11 50 25 c 0
 18 63 22 116 57 147 c 0
 90 175 132 177 165 156 c 0
 159 178 142 197 130 203 c 0
 116 188 l 0
 104 175 84 192 96 205 c 0
 104 213 l 0
 96 213 89 212 81 209 c 0
 69 203 55 231 72 239 c 0
 91 246 110 247 130 240 c 0
 148 259 l 0
 160 272 180 255 168 242 c 0
 153 227 l 0
 161 223 172 215 181 204 c 0
EndSplineSet
EndChar

StartChar: thorn
Encoding: 227 254 223
Width: 235
VWidth: 0
Flags: HMW
LayerCount: 2
Fore
SplineSet
32 -43 m 0
 41 -43 l 0
 41 215 l 0
 32 215 l 0
 8 215 8 245 32 245 c 0
 72 245 l 0
 77 245 81 241 81 236 c 0
 81 152 l 0
 105 184 161 183 187 155 c 0
 224 117 228 61 187 19 c 0
 164 -5 112 -18 81 16 c 0
 81 -43 l 0
 106 -43 l 0
 130 -43 130 -73 106 -73 c 0
 32 -73 l 0
 8 -73 8 -43 32 -43 c 0
156 136 m 0
 141 151 111 147 96 133 c 0
 78 115 76 72 90 45 c 0
 105 19 144 19 163 43 c 0
 181 66 180 113 156 136 c 0
EndSplineSet
EndChar

StartChar: eng
Encoding: 228 331 224
Width: 235
VWidth: 0
Flags: HMW
LayerCount: 2
Fore
SplineSet
163 110 m 0
 163 159 109 152 86 119 c 0
 86 30 l 0
 96 30 104 31 109 26 c 0
 116 19 116 11 110 5 c 0
 105 0 98 0 89 0 c 0
 44 0 l 0
 34 0 32 0 28 5 c 0
 21 11 22 20 28 26 c 0
 33 31 34 30 46 30 c 0
 46 141 l 0
 36 141 32 140 28 145 c 0
 22 151 21 161 28 167 c 0
 32 172 38 171 48 171 c 0
 86 171 l 0
 86 153 l 0
 108 181 163 184 187 160 c 0
 199 149 203 130 203 109 c 0
 203 3 l 0
 203 -25 199 -44 184 -59 c 0
 180 -63 176 -66 172 -69 c 0
 160 -77 148 -81 130 -81 c 0
 108 -81 l 0
 98 -81 91 -81 87 -77 c 0
 80 -70 80 -63 87 -56 c 0
 91 -52 98 -51 108 -51 c 0
 124 -51 l 0
 138 -51 148 -48 154 -42 c 0
 160 -36 163 -27 163 -16 c 0
 163 110 l 0
EndSplineSet
EndChar

StartChar: oslash
Encoding: 231 248 227
Width: 235
VWidth: 0
Flags: HMW
LayerCount: 2
Fore
SplineSet
205 161 m 0
 193 145 l 0
 220 117 221 52 186 18 c 0
 159 -8 111 -10 80 1 c 0
 71 -10 l 0
 53 -31 27 -10 42 9 c 0
 50 20 l 0
 17 52 16 117 52 153 c 0
 82 181 137 181 166 167 c 0
 176 180 l 0
 194 201 220 180 205 161 c 0
102 30 m 0
 123 24 145 28 158 45 c 0
 174 64 176 92 166 112 c 0
 102 30 l 0
75 52 m 0
 143 138 l 0
 125 148 98 147 80 126 c 0
 61 103 63 68 75 52 c 0
EndSplineSet
EndChar

StartChar: ogonek
Encoding: 242 731 238
Width: 235
VWidth: 0
Flags: HMW
LayerCount: 2
Fore
SplineSet
144 0 m 0
 128 -19 119 -28 119 -40 c 0
 127 -51 138 -51 156 -37 c 0
 167 -28 184 -51 165 -65 c 0
 134 -87 91 -65 88 -49 c 0
 84 -29 99 -12 110 0 c 0
 144 0 l 0
EndSplineSet
EndChar

StartChar: florin
Encoding: 251 402 244
Width: 235
VWidth: 0
Flags: HMW
LayerCount: 2
Fore
SplineSet
20 -60 m 0
 -2 -53 4 -13 26 -20 c 0
 45 -26 75 -33 85 -12 c 0
 90 -2 93 16 93 30 c 0
 93 141 l 0
 72 141 l 0
 48 141 48 171 72 171 c 0
 93 171 l 0
 93 195 l 0
 93 221 105 231 112 237 c 0
 132 254 189 254 213 242 c 0
 229 234 207 203 194 211 c 0
 182 218 151 224 140 212 c 0
 135 207 133 200 133 192 c 0
 133 171 l 0
 186 171 l 0
 210 171 210 141 186 141 c 0
 133 141 l 0
 133 30 l 0
 133 3 130 -23 115 -43 c 0
 98 -66 51 -71 20 -60 c 0
EndSplineSet
EndChar

StartChar: questiondown
Encoding: 252 191 245
Width: 235
VWidth: 0
Flags: HMW
LayerCount: 2
Fore
SplineSet
99 127 m 0
 83 140 83 158 99 169 c 0
 114 179 133 179 148 168 c 0
 164 155 164 137 148 126 c 0
 133 116 114 116 99 127 c 0
109 81 m 0
 109 105 139 105 139 81 c 0
 139 64 l 0
 139 49 127 49 115 49 c 0
 104 47 93 40 88 32 c 0
 73 13 78 -9 91 -22 c 0
 106 -37 136 -38 160 -23 c 0
 160 1 190 1 190 -23 c 0
 190 -44 l 0
 190 -55 170 -57 139 -62 c 0
 86 -68 69 -56 56 -44 c 0
 37 -26 30 8 49 36 c 0
 59 51 93 67 109 71 c 0
 109 81 l 0
EndSplineSet
EndChar

StartChar: dotlessi
Encoding: 253 305 246
Width: 235
VWidth: 0
Flags: HMW
LayerCount: 2
Fore
SplineSet
181 0 m 0
 58 0 l 0
 34 0 34 30 58 30 c 0
 98 30 l 0
 98 141 l 0
 71 141 l 0
 47 141 47 171 71 171 c 0
 129 171 l 0
 135 171 138 168 138 162 c 0
 138 30 l 0
 181 30 l 0
 205 30 205 0 181 0 c 0
EndSplineSet
EndChar

StartChar: fi
Encoding: 254 64257 247
Width: 235
VWidth: 0
Flags: HMW
LayerCount: 2
Fore
SplineSet
210 0 m 0
 158 0 l 0
 158 141 l 0
 90 141 l 0
 90 30 l 0
 108 30 l 0
 132 30 132 0 108 0 c 0
 29 0 l 0
 5 0 5 30 29 30 c 0
 50 30 l 0
 50 141 l 0
 29 141 l 0
 5 141 5 171 29 171 c 0
 50 171 l 0
 50 195 l 0
 50 221 62 231 69 237 c 0
 89 254 167 254 191 242 c 0
 207 234 185 203 172 211 c 0
 160 218 108 224 97 212 c 0
 92 207 90 200 90 192 c 0
 90 171 l 0
 189 171 l 0
 194 171 198 167 198 162 c 0
 198 30 l 0
 210 30 l 0
 234 30 234 0 210 0 c 0
EndSplineSet
EndChar

StartChar: fl
Encoding: 255 64258 248
Width: 235
VWidth: 0
Flags: HMW
LayerCount: 2
Fore
SplineSet
195 236 m 0
 195 30 l 0
 211 30 l 0
 235 30 235 0 211 0 c 0
 155 0 l 0
 155 141 l 0
 90 141 l 0
 90 30 l 0
 110 30 l 0
 134 30 134 0 110 0 c 0
 29 0 l 0
 5 0 5 30 29 30 c 0
 50 30 l 0
 50 141 l 0
 29 141 l 0
 5 141 5 171 29 171 c 0
 50 171 l 0
 50 195 l 0
 50 221 62 231 69 237 c 0
 89 254 147 251 172 245 c 0
 186 245 l 0
 191 245 195 241 195 236 c 0
97 212 m 0
 92 207 90 200 90 192 c 0
 90 171 l 0
 155 171 l 0
 155 213 l 0
 143 218 108 224 97 212 c 0
EndSplineSet
EndChar

